<?xml version="1.0" encoding="utf-8"?>
<!-- Generator: Adobe Illustrator 16.0.0, SVG Export Plug-In . SVG Version: 6.00 Build 0)  -->
<!DOCTYPE svg PUBLIC "-//W3C//DTD SVG 1.1//EN" "http://www.w3.org/Graphics/SVG/1.1/DTD/svg11.dtd">
<svg version="1.1" id="Layer_1" xmlns="http://www.w3.org/2000/svg" xmlns:xlink="http://www.w3.org/1999/xlink" x="0px" y="0px"
	 width="309px" height="75px" viewBox="0 0 309 75" enable-background="new 0 0 309 75" xml:space="preserve">
<g>
	<g>
		<path fill-rule="evenodd" clip-rule="evenodd" d="M117.022,30.565h-4.845l-0.577,1.336c-0.188,0.444-0.281,0.812-0.281,1.099
			c0,0.386,0.155,0.67,0.464,0.851c0.182,0.108,0.63,0.188,1.346,0.243v0.374h-4.562v-0.374c0.493-0.073,0.897-0.278,1.213-0.606
			c0.316-0.336,0.707-1.029,1.173-2.075l4.905-10.943h0.192l4.945,11.247c0.47,1.067,0.86,1.735,1.163,2.012
			c0.229,0.211,0.552,0.33,0.971,0.365v0.374h-6.634v-0.374h0.272c0.533,0,0.906-0.073,1.125-0.224
			c0.146-0.104,0.22-0.261,0.222-0.465c0-0.122-0.022-0.248-0.061-0.374c-0.015-0.063-0.116-0.312-0.306-0.758L117.022,30.565
			L117.022,30.565z M116.679,29.816l-2.044-4.723l-2.102,4.723H116.679L116.679,29.816z"/>
		<path d="M131.536,25.013v7.402c0,0.724,0.067,1.173,0.202,1.357c0.134,0.175,0.409,0.284,0.819,0.333v0.363h-3.853v-1.266
			c-0.455,0.542-0.904,0.936-1.354,1.185c-0.453,0.24-0.959,0.365-1.517,0.365c-0.535,0-1.011-0.161-1.425-0.486
			c-0.414-0.332-0.69-0.713-0.833-1.154c-0.14-0.436-0.211-1.204-0.211-2.293v-3.754c0-0.714-0.068-1.158-0.201-1.334
			c-0.13-0.176-0.402-0.291-0.819-0.345v-0.373h3.853v6.463c0,0.675,0.03,1.108,0.091,1.302c0.067,0.198,0.167,0.345,0.304,0.445
			c0.139,0.104,0.303,0.152,0.483,0.152c0.243,0,0.462-0.063,0.658-0.193c0.269-0.175,0.593-0.529,0.971-1.061v-5.057
			c0-0.714-0.067-1.158-0.202-1.334c-0.128-0.176-0.403-0.291-0.819-0.345v-0.373H131.536L131.536,25.013z"/>
		<path d="M139.173,24.749l0.155,3.227h-0.345c-0.412-0.958-0.84-1.612-1.286-1.962c-0.436-0.348-0.877-0.523-1.315-0.525
			c-0.275,0-0.512,0.094-0.708,0.282c-0.194,0.182-0.293,0.394-0.293,0.637c0,0.182,0.068,0.356,0.202,0.525
			c0.219,0.276,0.821,0.752,1.812,1.428c0.991,0.667,1.641,1.237,1.953,1.706c0.316,0.468,0.474,0.989,0.474,1.57
			c0,0.524-0.13,1.042-0.394,1.545c-0.263,0.508-0.635,0.894-1.114,1.166c-0.479,0.266-1.006,0.404-1.588,0.404
			c-0.45,0-1.055-0.145-1.809-0.426c-0.202-0.074-0.342-0.111-0.415-0.111c-0.222,0-0.409,0.17-0.556,0.506h-0.333l-0.164-3.4h0.345
			c0.304,0.891,0.716,1.56,1.245,2.005c0.53,0.445,1.035,0.664,1.506,0.664c0.323,0,0.588-0.096,0.789-0.292
			c0.208-0.2,0.313-0.445,0.313-0.729c0-0.322-0.1-0.602-0.302-0.839c-0.204-0.234-0.655-0.593-1.357-1.07
			c-1.03-0.716-1.698-1.263-2.001-1.637c-0.444-0.555-0.669-1.166-0.669-1.834c0-0.726,0.252-1.383,0.75-1.97
			c0.508-0.596,1.234-0.891,2.186-0.891c0.511,0,1.009,0.128,1.486,0.373c0.182,0.104,0.332,0.155,0.447,0.155
			c0.12,0,0.219-0.024,0.292-0.073c0.074-0.053,0.193-0.198,0.354-0.435H139.173L139.173,24.749z"/>
		<path d="M144.183,21.551v3.461h2.245v1.001h-2.245v5.836c0,0.544,0.024,0.898,0.071,1.061c0.054,0.155,0.145,0.286,0.272,0.386
			c0.127,0.094,0.245,0.14,0.354,0.14c0.438,0,0.853-0.333,1.245-1l0.303,0.222c-0.547,1.295-1.435,1.941-2.662,1.941
			c-0.599,0-1.108-0.164-1.526-0.494c-0.41-0.337-0.676-0.711-0.787-1.124c-0.07-0.229-0.102-0.846-0.102-1.862v-5.106h-1.236
			v-0.356c0.85-0.598,1.573-1.227,2.164-1.891c0.601-0.659,1.124-1.396,1.567-2.216H144.183L144.183,21.551z"/>
		<path d="M151.045,25.013v2.144c0.626-0.979,1.176-1.625,1.647-1.942c0.473-0.324,0.928-0.485,1.365-0.485
			c0.38,0,0.679,0.117,0.901,0.353c0.229,0.231,0.344,0.556,0.345,0.981c0,0.452-0.112,0.803-0.334,1.052
			c-0.216,0.249-0.479,0.375-0.789,0.375c-0.359,0-0.667-0.114-0.932-0.347c-0.263-0.226-0.418-0.356-0.464-0.381
			c-0.068-0.04-0.144-0.061-0.234-0.061c-0.194,0-0.38,0.074-0.555,0.222c-0.276,0.227-0.488,0.556-0.628,0.982
			c-0.216,0.653-0.323,1.374-0.323,2.162v2.178l0.01,0.563c0,0.388,0.021,0.631,0.07,0.739c0.081,0.183,0.199,0.318,0.354,0.406
			c0.161,0.079,0.43,0.131,0.81,0.152v0.363h-5.108v-0.363c0.411-0.035,0.687-0.146,0.83-0.333c0.147-0.194,0.22-0.707,0.222-1.527
			v-5.23c0-0.538-0.027-0.883-0.081-1.032c-0.068-0.188-0.167-0.325-0.293-0.413c-0.129-0.087-0.354-0.149-0.678-0.184v-0.373
			H151.045L151.045,25.013z"/>
		<path fill-rule="evenodd" clip-rule="evenodd" d="M160.499,33.073c-1.153,1.019-2.191,1.526-3.106,1.526
			c-0.542,0-0.989-0.176-1.345-0.526c-0.36-0.357-0.536-0.802-0.536-1.336c0-0.72,0.309-1.368,0.93-1.94
			c0.622-0.578,1.973-1.35,4.058-2.306v-0.948c0-0.716-0.042-1.165-0.124-1.347c-0.074-0.19-0.219-0.351-0.435-0.487
			c-0.215-0.139-0.456-0.211-0.729-0.211c-0.438,0-0.798,0.098-1.082,0.293c-0.176,0.12-0.263,0.263-0.263,0.425
			c0,0.141,0.093,0.316,0.285,0.524c0.254,0.291,0.384,0.57,0.384,0.84c0,0.332-0.126,0.613-0.377,0.849
			c-0.24,0.229-0.562,0.345-0.958,0.345c-0.426,0-0.784-0.129-1.072-0.385c-0.283-0.254-0.425-0.555-0.425-0.899
			c0-0.486,0.191-0.948,0.575-1.385c0.384-0.448,0.922-0.785,1.609-1.023c0.687-0.236,1.401-0.353,2.143-0.353
			c0.898,0,1.605,0.192,2.123,0.578c0.527,0.377,0.866,0.789,1.021,1.232c0.093,0.284,0.145,0.935,0.145,1.952v3.671
			c0,0.433,0.017,0.707,0.05,0.82c0.032,0.108,0.082,0.188,0.15,0.242c0.067,0.055,0.145,0.084,0.232,0.084
			c0.175,0,0.354-0.126,0.537-0.375l0.304,0.242c-0.338,0.5-0.69,0.863-1.052,1.093c-0.36,0.222-0.768,0.333-1.225,0.333
			c-0.541,0-0.961-0.125-1.264-0.372C160.749,33.97,160.564,33.584,160.499,33.073L160.499,33.073z M160.499,32.333v-3.165
			c-0.818,0.479-1.425,0.991-1.822,1.54c-0.263,0.36-0.394,0.731-0.394,1.1c0,0.311,0.111,0.583,0.333,0.819
			c0.167,0.181,0.403,0.273,0.705,0.273C159.66,32.901,160.051,32.713,160.499,32.333L160.499,32.333z"/>
		<path d="M168.716,20.753v11.754c0,0.666,0.075,1.094,0.232,1.281c0.153,0.184,0.456,0.287,0.908,0.316v0.363h-5.107v-0.363
			c0.419-0.014,0.729-0.136,0.93-0.365c0.136-0.156,0.202-0.566,0.202-1.232v-9.791c0-0.661-0.076-1.083-0.232-1.264
			c-0.153-0.188-0.453-0.298-0.899-0.325v-0.375H168.716L168.716,20.753z"/>
		<path fill-rule="evenodd" clip-rule="evenodd" d="M173.042,20.432c0.441,0,0.811,0.153,1.113,0.466
			c0.304,0.301,0.454,0.667,0.454,1.099c0,0.432-0.155,0.801-0.465,1.105c-0.303,0.304-0.669,0.456-1.103,0.456
			c-0.43,0-0.796-0.152-1.103-0.456c-0.303-0.304-0.453-0.673-0.453-1.105c0-0.432,0.15-0.798,0.453-1.099
			C172.246,20.585,172.612,20.432,173.042,20.432L173.042,20.432z M174.459,25.013v7.495c0,0.666,0.076,1.094,0.23,1.281
			c0.158,0.184,0.461,0.287,0.912,0.316v0.363h-5.107v-0.363c0.416-0.014,0.729-0.136,0.932-0.365
			c0.133-0.156,0.201-0.566,0.201-1.232v-5.525c0-0.667-0.077-1.091-0.232-1.274c-0.156-0.188-0.455-0.294-0.9-0.323v-0.373H174.459
			L174.459,25.013z"/>
		<path fill-rule="evenodd" clip-rule="evenodd" d="M181.119,33.073c-1.152,1.019-2.189,1.526-3.105,1.526
			c-0.539,0-0.988-0.176-1.344-0.526c-0.358-0.357-0.538-0.802-0.538-1.336c0-0.72,0.312-1.368,0.934-1.94
			c0.62-0.578,1.971-1.35,4.054-2.306v-0.948c0-0.716-0.042-1.165-0.12-1.347c-0.075-0.19-0.221-0.351-0.437-0.487
			c-0.215-0.139-0.458-0.211-0.729-0.211c-0.438,0-0.798,0.098-1.08,0.293c-0.177,0.12-0.265,0.263-0.265,0.425
			c0,0.141,0.095,0.316,0.284,0.524c0.256,0.291,0.382,0.57,0.382,0.84c0,0.332-0.123,0.613-0.371,0.849
			c-0.243,0.229-0.565,0.345-0.962,0.345c-0.427,0-0.783-0.129-1.071-0.385c-0.284-0.254-0.425-0.555-0.425-0.899
			c0-0.486,0.19-0.948,0.575-1.385c0.383-0.448,0.921-0.785,1.607-1.023c0.688-0.236,1.404-0.353,2.145-0.353
			c0.898,0,1.604,0.192,2.125,0.578c0.524,0.377,0.866,0.789,1.02,1.232c0.095,0.284,0.142,0.935,0.144,1.952v3.671
			c0,0.433,0.017,0.707,0.05,0.82c0.033,0.108,0.085,0.188,0.151,0.242c0.067,0.055,0.145,0.084,0.233,0.084
			c0.175,0,0.353-0.126,0.533-0.375l0.307,0.242c-0.337,0.5-0.689,0.863-1.053,1.093c-0.357,0.222-0.767,0.333-1.224,0.333
			c-0.538,0-0.962-0.125-1.265-0.372C181.371,33.97,181.188,33.584,181.119,33.073L181.119,33.073z M181.119,32.333v-3.165
			c-0.815,0.479-1.425,0.991-1.821,1.54c-0.262,0.36-0.392,0.731-0.392,1.1c0,0.311,0.11,0.583,0.332,0.819
			c0.168,0.181,0.403,0.273,0.705,0.273C180.284,32.901,180.674,32.713,181.119,32.333L181.119,32.333z"/>
		<path d="M189.291,25.013v1.224c0.486-0.528,0.951-0.908,1.395-1.143c0.447-0.241,0.924-0.365,1.438-0.365
			c0.613,0,1.123,0.171,1.527,0.515c0.402,0.338,0.675,0.759,0.809,1.265c0.107,0.385,0.162,1.123,0.162,2.216v3.68
			c0,0.731,0.063,1.184,0.191,1.368c0.136,0.175,0.41,0.284,0.828,0.333v0.363h-4.781v-0.363c0.355-0.049,0.611-0.196,0.767-0.445
			c0.109-0.169,0.161-0.587,0.161-1.255v-4.209c0-0.774-0.03-1.26-0.089-1.463c-0.063-0.205-0.167-0.358-0.314-0.467
			c-0.142-0.113-0.299-0.169-0.474-0.169c-0.581,0-1.12,0.413-1.62,1.241v5.068c0,0.708,0.063,1.156,0.194,1.348
			c0.132,0.188,0.38,0.304,0.735,0.353v0.363h-4.781v-0.363c0.398-0.043,0.681-0.17,0.848-0.385
			c0.116-0.147,0.172-0.585,0.172-1.316v-5.34c0-0.714-0.066-1.158-0.202-1.334c-0.127-0.176-0.399-0.291-0.817-0.345v-0.373
			H189.291L189.291,25.013z"/>
		<path d="M214.266,20.442v4.833h-0.372c-0.452-1.321-1.131-2.325-2.03-3.014c-0.908-0.688-1.895-1.03-2.967-1.03
			c-1.024,0-1.877,0.291-2.559,0.87c-0.682,0.573-1.162,1.375-1.445,2.405c-0.282,1.033-0.424,2.091-0.424,3.177
			c0,1.316,0.155,2.467,0.462,3.458c0.312,0.991,0.813,1.72,1.499,2.187c0.696,0.462,1.515,0.696,2.467,0.696
			c0.331,0,0.67-0.032,1.012-0.099c0.35-0.076,0.707-0.179,1.073-0.316v-2.851c0-0.538-0.038-0.888-0.112-1.043
			c-0.074-0.16-0.229-0.304-0.467-0.435c-0.229-0.126-0.508-0.192-0.836-0.192h-0.357v-0.374h6.668v0.374
			c-0.505,0.034-0.862,0.104-1.063,0.213c-0.197,0.101-0.35,0.273-0.456,0.516c-0.063,0.129-0.093,0.44-0.093,0.941v2.851
			c-0.874,0.392-1.789,0.686-2.74,0.88c-0.942,0.202-1.923,0.304-2.94,0.304c-1.302,0-2.385-0.178-3.248-0.525
			c-0.854-0.357-1.614-0.824-2.276-1.396c-0.652-0.582-1.165-1.229-1.537-1.951c-0.47-0.934-0.707-1.972-0.707-3.127
			c0-2.063,0.724-3.804,2.174-5.227c1.45-1.425,3.273-2.135,5.473-2.135c0.68,0,1.295,0.053,1.839,0.161
			c0.297,0.055,0.776,0.209,1.437,0.466c0.669,0.25,1.063,0.374,1.183,0.374c0.188,0,0.366-0.067,0.528-0.202
			c0.161-0.141,0.309-0.405,0.444-0.789H214.266L214.266,20.442z"/>
		<path fill-rule="evenodd" clip-rule="evenodd" d="M220.831,24.729c0.822,0,1.587,0.213,2.297,0.637
			c0.708,0.425,1.244,1.029,1.609,1.812c0.369,0.783,0.555,1.638,0.556,2.569c0,1.342-0.343,2.462-1.022,3.366
			c-0.823,1.091-1.959,1.64-3.409,1.64c-1.424,0-2.52-0.5-3.287-1.499c-0.769-0.997-1.152-2.155-1.152-3.466
			c0-1.358,0.391-2.536,1.172-3.542C218.385,25.234,219.463,24.729,220.831,24.729L220.831,24.729z M220.872,25.446
			c-0.345,0-0.642,0.132-0.891,0.397c-0.243,0.255-0.404,0.766-0.484,1.535c-0.075,0.765-0.111,1.826-0.111,3.188
			c0,0.721,0.046,1.396,0.142,2.021c0.074,0.479,0.232,0.842,0.476,1.093c0.241,0.251,0.517,0.374,0.828,0.374
			c0.303,0,0.557-0.084,0.76-0.252c0.264-0.228,0.438-0.55,0.524-0.96c0.136-0.642,0.202-1.935,0.202-3.885
			c0-1.146-0.063-1.931-0.191-2.356c-0.128-0.432-0.317-0.743-0.566-0.942C221.383,25.519,221.155,25.446,220.872,25.446
			L220.872,25.446z"/>
		<path d="M229.753,34.753l-3.186-7.335c-0.384-0.882-0.685-1.442-0.901-1.677c-0.155-0.175-0.383-0.294-0.688-0.355v-0.373h5.027
			v0.373c-0.318,0-0.533,0.059-0.648,0.172c-0.161,0.149-0.242,0.326-0.242,0.526c0,0.249,0.147,0.717,0.445,1.407l1.559,3.549
			l1.243-3.064c0.356-0.877,0.534-1.498,0.534-1.862c0-0.207-0.075-0.377-0.229-0.504c-0.151-0.132-0.417-0.208-0.803-0.224v-0.373
			h3.098v0.373c-0.299,0.042-0.54,0.152-0.73,0.333c-0.188,0.182-0.471,0.72-0.848,1.608l-3.156,7.426H229.753L229.753,34.753z"/>
		<path fill-rule="evenodd" clip-rule="evenodd" d="M242.402,29.402h-5.188c0.061,1.255,0.394,2.246,1,2.974
			c0.465,0.559,1.022,0.839,1.68,0.839c0.402,0,0.769-0.111,1.102-0.333c0.33-0.231,0.683-0.637,1.06-1.227l0.347,0.227
			c-0.516,1.044-1.079,1.784-1.699,2.224c-0.62,0.432-1.34,0.647-2.155,0.647c-1.404,0-2.467-0.541-3.186-1.617
			c-0.581-0.871-0.869-1.95-0.869-3.24c0-1.577,0.425-2.831,1.273-3.762c0.855-0.936,1.858-1.404,3.005-1.404
			c0.957,0,1.784,0.395,2.487,1.183C241.969,26.696,242.349,27.857,242.402,29.402L242.402,29.402z M239.914,28.725
			c0-1.086-0.061-1.831-0.184-2.234c-0.114-0.407-0.297-0.713-0.546-0.921c-0.142-0.124-0.331-0.184-0.565-0.184
			c-0.353,0-0.639,0.172-0.86,0.515c-0.396,0.602-0.598,1.425-0.598,2.471v0.353H239.914L239.914,28.725z"/>
		<path d="M246.887,25.013v2.144c0.628-0.979,1.177-1.625,1.647-1.942c0.475-0.324,0.927-0.485,1.365-0.485
			c0.38,0,0.679,0.117,0.901,0.353c0.23,0.231,0.343,0.556,0.345,0.981c0,0.452-0.112,0.803-0.335,1.052
			c-0.216,0.249-0.479,0.375-0.787,0.375c-0.358,0-0.67-0.114-0.932-0.347c-0.263-0.226-0.418-0.356-0.463-0.381
			c-0.072-0.04-0.149-0.061-0.236-0.061c-0.194,0-0.38,0.074-0.555,0.222c-0.277,0.227-0.484,0.556-0.629,0.982
			c-0.214,0.653-0.322,1.374-0.322,2.162v2.178l0.009,0.563c0,0.388,0.024,0.631,0.072,0.739c0.08,0.183,0.197,0.318,0.353,0.406
			c0.165,0.079,0.435,0.131,0.81,0.152v0.363h-5.106v-0.363c0.412-0.035,0.686-0.146,0.831-0.333
			c0.147-0.194,0.223-0.707,0.223-1.527v-5.23c0-0.538-0.027-0.883-0.083-1.032c-0.068-0.188-0.164-0.325-0.293-0.413
			c-0.128-0.087-0.354-0.149-0.678-0.184v-0.373H246.887L246.887,25.013z"/>
		<path d="M255.605,25.013v1.224c0.485-0.528,0.95-0.908,1.395-1.143c0.446-0.241,0.924-0.365,1.438-0.365
			c0.612,0,1.12,0.171,1.527,0.515c0.402,0.338,0.672,0.759,0.809,1.265c0.109,0.385,0.162,1.123,0.162,2.216v3.68
			c0,0.731,0.062,1.184,0.191,1.368c0.136,0.175,0.411,0.284,0.827,0.333v0.363h-4.779v-0.363c0.355-0.049,0.61-0.196,0.766-0.445
			c0.109-0.169,0.161-0.587,0.161-1.255v-4.209c0-0.774-0.03-1.26-0.09-1.463c-0.061-0.205-0.166-0.358-0.313-0.467
			c-0.144-0.113-0.3-0.169-0.475-0.169c-0.582,0-1.12,0.413-1.619,1.241v5.068c0,0.708,0.063,1.156,0.193,1.348
			c0.131,0.188,0.38,0.304,0.735,0.353v0.363h-4.781v-0.363c0.397-0.043,0.682-0.17,0.849-0.385
			c0.115-0.147,0.172-0.585,0.172-1.316v-5.34c0-0.714-0.067-1.158-0.202-1.334c-0.128-0.176-0.401-0.291-0.818-0.345v-0.373
			H255.605L255.605,25.013z"/>
		<path d="M266.563,25.013v1.244c0.519-0.568,0.999-0.964,1.437-1.184c0.445-0.228,0.93-0.344,1.454-0.344
			c0.609,0,1.117,0.141,1.527,0.425c0.412,0.284,0.729,0.717,0.952,1.296c0.541-0.606,1.055-1.046,1.549-1.316
			c0.498-0.269,1.018-0.404,1.558-0.404c0.651,0,1.172,0.152,1.556,0.455c0.39,0.299,0.66,0.679,0.809,1.142
			c0.157,0.459,0.231,1.196,0.234,2.207v3.873c0,0.731,0.063,1.179,0.193,1.355c0.132,0.175,0.41,0.292,0.826,0.345v0.363h-4.883
			v-0.363c0.383-0.035,0.666-0.181,0.847-0.445c0.124-0.183,0.186-0.601,0.186-1.255v-4.064c0-0.844-0.035-1.382-0.103-1.608
			c-0.068-0.23-0.178-0.4-0.325-0.506c-0.14-0.114-0.309-0.171-0.504-0.171c-0.291,0-0.584,0.107-0.88,0.323
			c-0.297,0.208-0.597,0.526-0.901,0.949v5.078c0,0.682,0.056,1.111,0.175,1.286c0.153,0.251,0.449,0.386,0.887,0.415v0.363h-4.895
			v-0.363c0.266-0.014,0.471-0.078,0.618-0.193c0.153-0.123,0.256-0.263,0.303-0.424c0.055-0.169,0.08-0.53,0.08-1.083v-4.064
			c0-0.857-0.033-1.395-0.1-1.608c-0.067-0.217-0.183-0.386-0.346-0.506c-0.151-0.121-0.322-0.181-0.506-0.181
			c-0.269,0-0.514,0.068-0.735,0.211c-0.319,0.209-0.655,0.566-1.013,1.07v5.078c0,0.668,0.064,1.111,0.191,1.325
			c0.136,0.211,0.411,0.333,0.83,0.375v0.363h-4.874v-0.363c0.396-0.043,0.68-0.17,0.85-0.385c0.112-0.147,0.169-0.585,0.17-1.316
			v-5.34c0-0.714-0.064-1.158-0.202-1.334c-0.129-0.176-0.4-0.291-0.817-0.345v-0.373H266.563L266.563,25.013z"/>
		<path fill-rule="evenodd" clip-rule="evenodd" d="M287.075,29.402h-5.188c0.061,1.255,0.394,2.246,1.001,2.974
			c0.466,0.559,1.024,0.839,1.679,0.839c0.404,0,0.771-0.111,1.103-0.333c0.33-0.231,0.683-0.637,1.062-1.227l0.345,0.227
			c-0.516,1.044-1.081,1.784-1.697,2.224c-0.622,0.432-1.343,0.647-2.157,0.647c-1.404,0-2.463-0.541-3.186-1.617
			c-0.58-0.871-0.871-1.95-0.871-3.24c0-1.577,0.428-2.831,1.277-3.762c0.855-0.936,1.855-1.404,3.003-1.404
			c0.954,0,1.787,0.395,2.488,1.183C286.639,26.696,287.021,27.857,287.075,29.402L287.075,29.402z M284.587,28.725
			c0-1.086-0.061-1.831-0.182-2.234c-0.116-0.407-0.298-0.713-0.548-0.921c-0.14-0.124-0.329-0.184-0.565-0.184
			c-0.35,0-0.638,0.172-0.86,0.515c-0.396,0.602-0.596,1.425-0.596,2.471v0.353H284.587L284.587,28.725z"/>
		<path d="M291.293,25.013v1.224c0.486-0.528,0.949-0.908,1.395-1.143c0.445-0.241,0.923-0.365,1.435-0.365
			c0.614,0,1.124,0.171,1.529,0.515c0.404,0.338,0.673,0.759,0.809,1.265c0.109,0.385,0.161,1.123,0.161,2.216v3.68
			c0,0.731,0.065,1.184,0.193,1.368c0.135,0.175,0.41,0.284,0.831,0.333v0.363h-4.784v-0.363c0.355-0.049,0.612-0.196,0.766-0.445
			c0.108-0.169,0.163-0.587,0.166-1.255v-4.209c0-0.774-0.03-1.26-0.093-1.463c-0.063-0.205-0.167-0.358-0.313-0.467
			c-0.143-0.113-0.301-0.169-0.477-0.169c-0.581,0-1.119,0.413-1.617,1.241v5.068c0,0.708,0.063,1.156,0.191,1.348
			c0.137,0.188,0.381,0.304,0.738,0.353v0.363h-4.784v-0.363c0.398-0.043,0.683-0.17,0.85-0.385
			c0.115-0.147,0.172-0.585,0.172-1.316v-5.34c0-0.714-0.065-1.158-0.202-1.334c-0.128-0.176-0.401-0.291-0.819-0.345v-0.373
			H291.293L291.293,25.013z"/>
		<path d="M301.665,21.551v3.461h2.245v1.001h-2.245v5.836c0,0.544,0.024,0.898,0.071,1.061c0.054,0.155,0.145,0.286,0.272,0.386
			c0.128,0.094,0.245,0.14,0.353,0.14c0.439,0,0.854-0.333,1.246-1l0.303,0.222c-0.547,1.295-1.435,1.941-2.661,1.941
			c-0.599,0-1.109-0.164-1.526-0.494c-0.411-0.337-0.675-0.711-0.79-1.124c-0.066-0.229-0.102-0.846-0.102-1.862v-5.106h-1.229
			v-0.356c0.847-0.598,1.569-1.227,2.161-1.891c0.602-0.659,1.123-1.396,1.569-2.216H301.665L301.665,21.551z"/>
	</g>
	<path d="M92.154,21.222c0.063,0.186,0.063,0.313,0,0.501c-0.214,0.281-0.527,0.407-0.84,0.281
		c-0.217-0.125-0.278-0.343-0.339-0.533c0.061-0.249,0.309-0.469,0.527-0.563C91.782,20.908,91.969,21.064,92.154,21.222
		L92.154,21.222z"/>
	<path d="M91.47,28.929c0,0.254-0.247,0.504-0.405,0.597c-0.249,0.096-0.528,0.03-0.684-0.154c-0.186-0.064-0.125-0.314-0.125-0.472
		c0.157-0.22,0.373-0.343,0.59-0.409C91.129,28.556,91.313,28.743,91.47,28.929L91.47,28.929z"/>
	<path d="M93.462,29.213c-0.094,0.28-0.312,0.532-0.592,0.563c-0.185-0.032-0.528-0.093-0.467-0.375
		c0-0.219,0.125-0.437,0.283-0.502C92.995,28.743,93.368,28.899,93.462,29.213L93.462,29.213z"/>
	<path d="M92.186,30.28c-0.063,0.281-0.032,0.594-0.34,0.783c-0.252,0.064-0.563,0.029-0.749-0.125
		c-0.186-0.158-0.216-0.438-0.122-0.658c0.154-0.249,0.433-0.438,0.746-0.377C91.939,30.031,92,30.184,92.186,30.28L92.186,30.28z"
		/>
	<path d="M93.805,38.21c0.094,0.312-0.185,0.47-0.403,0.657c-0.188,0.093-0.407,0-0.594-0.093c-0.032-0.157-0.216-0.283-0.156-0.503
		c0.124-0.282,0.406-0.407,0.716-0.376C93.525,38.021,93.648,38.052,93.805,38.21L93.805,38.21z"/>
	<path d="M95.859,38.083c0.186,0.282,0.03,0.503-0.125,0.723c-0.125,0.218-0.373,0.28-0.561,0.188
		c-0.188-0.188-0.438-0.284-0.468-0.564c0-0.252,0.28-0.439,0.468-0.533C95.486,37.77,95.61,38.083,95.859,38.083L95.859,38.083z"/>
	<path d="M92.092,39.838c-0.092,0.252-0.28,0.376-0.529,0.503c-0.249,0.061-0.403-0.158-0.588-0.251
		c-0.158-0.124-0.094-0.408-0.033-0.565C91.253,38.993,92.092,39.245,92.092,39.838L92.092,39.838z"/>
	<path d="M94.457,39.966c-0.094,0.344-0.434,0.498-0.746,0.531c-0.279-0.126-0.592-0.343-0.373-0.722
		c0.125-0.123,0.187-0.251,0.373-0.282C94.084,39.368,94.363,39.652,94.457,39.966L94.457,39.966z"/>
	<path d="M95.361,41.313c0.061,0.438-0.498,0.217-0.716,0.345c-1.308,0.783-2.988,0.188-4.232-0.286
		c0.092-0.402,0.562-0.249,0.81-0.402c1.338-0.85,2.706,0.188,4.045,0.249L95.361,41.313L95.361,41.313z"/>
	<path d="M92.528,43.444c0.313-0.033,0.373-0.408,0.716-0.473c0.313-0.059,0.59,0.125,0.746,0.347
		c0.125,0.375-0.156,0.563-0.403,0.721c-0.218,0.154-0.686-0.188-0.654,0.22c0.219,0.154,0.406,0.376,0.436,0.627
		c-0.061,0.124-0.279,0.094-0.374,0.03c-0.903-0.376-1.866-1.002-2.24-1.944c-0.125-0.279-0.714-0.498-0.374-0.751
		C91.283,42.159,92.03,42.881,92.528,43.444L92.528,43.444z"/>
	<path d="M95.516,42.474c0.155,0.153,0.094,0.439-0.029,0.591c-0.158,0.316-0.623,0.191-0.904,0.158
		c-0.154-0.158-0.31-0.31-0.249-0.563c0.124-0.186,0.249-0.313,0.466-0.406C95.08,42.189,95.298,42.315,95.516,42.474L95.516,42.474
		z"/>
	<path d="M95.859,44.135c0.093,0.374-0.188,0.628-0.437,0.781c-0.311,0.094-0.559-0.125-0.749-0.281
		c-0.153-0.188-0.028-0.376,0-0.596c0.219-0.188,0.5-0.346,0.813-0.219C95.61,43.914,95.734,43.977,95.859,44.135L95.859,44.135z"/>
	<path d="M93.681,53.034c-0.279,0.407-0.156,1.004-0.437,1.442c-0.622,0.719-1.152,1.535-2.147,1.691
		c-0.155-0.314,0.217-0.627,0.374-0.908c0.435-0.941,1.058-2.007,2.055-2.415L93.681,53.034L93.681,53.034z"/>
	<path d="M3.871,53.692c0.03,0.158,0.124,0.281,0.091,0.438c-0.091,0.158-0.246,0.347-0.434,0.377
		c-0.343,0.063-0.558-0.126-0.716-0.407c-0.032-0.279,0.064-0.533,0.311-0.658C3.401,53.315,3.716,53.474,3.871,53.692L3.871,53.692
		z"/>
	<path d="M96.666,54.507c-0.092,0.221-0.217,0.505-0.466,0.505c-0.28-0.033-0.56-0.065-0.714-0.348
		c-0.125-0.346,0.154-0.534,0.403-0.626C96.2,54.038,96.605,54.162,96.666,54.507L96.666,54.507z"/>
	<path d="M94.831,54.6c0,0.224-0.125,0.442-0.279,0.535c-0.249,0.091-0.562,0.061-0.746-0.123c-0.28-0.254-0.064-0.473,0.124-0.659
		C94.209,54.192,94.736,54.225,94.831,54.6L94.831,54.6z"/>
	<path d="M4.834,55.135c0.062,0.344-0.063,0.658-0.374,0.784c-0.281,0-0.59-0.159-0.684-0.44c-0.03-0.283,0.061-0.563,0.313-0.655
		C4.398,54.728,4.649,54.916,4.834,55.135L4.834,55.135z"/>
	<path d="M96.108,56.042c0.06,0.221-0.125,0.316-0.156,0.47c-0.187,0.158-0.498,0.188-0.714,0.126
		c-0.283-0.154-0.283-0.405-0.283-0.688c0.188-0.126,0.219-0.282,0.437-0.345C95.671,55.604,96.014,55.729,96.108,56.042
		L96.108,56.042z"/>
	<path d="M94.178,56.14c0.125,0.372-0.219,0.561-0.467,0.656c-0.125,0.027-0.309-0.065-0.343,0.123
		c0.81,0.409,1.306,1.067,1.93,1.663v0.251c-1.12-0.031-2.273-0.313-3.082-1.189c-0.217-0.159-0.59-0.159-0.839-0.378
		c0.404-0.407,1.15-0.252,1.711-0.281c0.404-0.438-0.467-0.752,0.062-1.131c0.187-0.03,0.312-0.219,0.56-0.155
		C93.929,55.793,94.054,55.949,94.178,56.14L94.178,56.14z"/>
	<path d="M77.715,67.358c-0.188,0.158-0.434,0.25-0.403,0.563c0.186,0.251,0.433,0.314,0.684,0.345
		c0.156-0.156,0.435-0.28,0.435-0.563C78.307,67.453,78.027,67.292,77.715,67.358z M77.869,66.7
		c0.158-0.157,0.313-0.345,0.283-0.596c-0.125-0.281-0.373-0.531-0.746-0.438c-0.158,0.157-0.498,0.31-0.467,0.626
		C76.999,66.762,77.526,66.793,77.869,66.7z M80.299,56.074c-0.093,0.313,0.156,0.505,0.311,0.722
		c0.219,0.093,0.498,0.063,0.686-0.126c0.03-0.158,0.216-0.345,0.155-0.502C81.355,55.698,80.549,55.604,80.299,56.074z
		 M78.679,64.319l-0.184,0.03c-0.125,1.254,0.776,2.163,1.677,2.979h0.126c0.156,0.061,0.186-0.128,0.186-0.22
		C80.455,65.823,79.52,65.038,78.679,64.319z M76.064,63.942c-0.154,0.156-0.403,0.249-0.309,0.565
		c0.188,0.156,0.372,0.251,0.591,0.279c0.155-0.155,0.434-0.219,0.434-0.468C76.69,63.973,76.377,63.814,76.064,63.942z
		 M81.762,58.143c0.092,0.032,0.25-0.03,0.31,0.063c0.313-0.094,0.528-0.345,0.562-0.689c-0.094-0.377-0.562-0.407-0.84-0.377
		c-0.219,0.033-0.283,0.282-0.438,0.439C81.355,57.829,81.544,58.017,81.762,58.143z M89.324,52.438
		c-1.214,0.504-2.274,1.787-2.771,2.979c0.188,0.219,0.373-0.095,0.591-0.095c1.275-0.469,1.897-1.787,2.613-2.853
		C89.633,52.408,89.448,52.438,89.324,52.438z M88.98,56.293c0.344-0.153,0.528-0.47,0.438-0.814
		c-0.188-0.344-0.811-0.532-1.06-0.063c-0.249,0.156-0.094,0.503,0.031,0.658C88.576,56.232,88.732,56.358,88.98,56.293z
		 M89.885,57.358c-0.219,0.096-0.5,0.158-0.591,0.409c-0.188,0.284,0.09,0.533,0.248,0.722c0.279,0.063,0.683,0.124,0.871-0.188
		c0.124-0.218,0.154-0.472,0.06-0.691C90.256,57.517,90.101,57.328,89.885,57.358z M79.55,57.014
		c-0.124,0.252-0.278,0.503-0.031,0.754c0.155,0.127,0.374,0.345,0.653,0.249c0.249-0.122,0.562-0.373,0.531-0.721
		C80.455,56.951,79.924,56.638,79.55,57.014z M90.165,54.162c-0.25,0.095-0.468,0.282-0.532,0.565
		c0.158,0.344,0.532,0.656,0.965,0.468c0.126-0.091,0.407-0.279,0.377-0.531C90.786,54.353,90.567,54.13,90.165,54.162z
		 M89.324,59.806c-0.374-0.909-1.06-1.693-1.775-2.289c-0.249-0.095-0.559-0.439-0.84-0.158c0.313,0.942,0.874,1.757,1.62,2.509
		c0.467,0.095,0.871,0.658,1.368,0.439C89.757,60.087,89.479,59.929,89.324,59.806z M83.348,62.688
		c-0.062-0.814-0.373-1.598-0.809-2.226l-0.871-0.94c-0.313-0.094-0.532-0.659-0.841-0.375c-0.033,0.123,0,0.249,0.125,0.312
		c0.527,1.408,0.84,2.82,2.238,3.825h0.125C83.505,63.126,83.254,62.907,83.348,62.688z M79.055,62.279
		c-0.096,0.219-0.405,0.377-0.219,0.628c0.093,0.158,0.156,0.409,0.375,0.44c0.215,0.123,0.527,0.095,0.682-0.126
		c0.125-0.189,0.249-0.347,0.219-0.596C79.958,62.153,79.396,62,79.055,62.279z M80.048,60.651
		c-0.154,0.092-0.373,0.123-0.464,0.343c0,0.223,0,0.503,0.28,0.627c0.125,0.158,0.436,0.158,0.591,0
		c0.249-0.061,0.34-0.404,0.249-0.657C80.549,60.713,80.328,60.713,80.048,60.651z M80.859,62.312
		c-0.404,0.063-0.499,0.533-0.374,0.848c0.094,0.063,0.188,0.312,0.374,0.248c0.372,0.156,0.497-0.248,0.685-0.406
		c0.061-0.126-0.033-0.282-0.063-0.438C81.325,62.468,81.137,62.217,80.859,62.312z M12.958,24.387
		c0.249-0.064,0.467-0.345,0.467-0.599c-0.064-0.31-0.343-0.438-0.624-0.593c-0.187,0.062-0.405,0.062-0.499,0.25
		c-0.156,0.25-0.092,0.471,0,0.721C12.522,24.263,12.707,24.574,12.958,24.387z M19.584,27.771c0.281-0.124,0.5-0.344,0.467-0.72
		c-0.062-0.283-0.373-0.314-0.624-0.376c-0.247,0.125-0.558,0.376-0.432,0.72C19.15,27.647,19.335,27.679,19.584,27.771z
		 M17.843,28.711c-0.063,0.315,0.154,0.438,0.343,0.597c0.31,0.186,0.592-0.094,0.777-0.25c0.094-0.158,0-0.409-0.093-0.501
		c-0.188-0.126-0.311-0.281-0.56-0.219C18.122,28.398,17.965,28.586,17.843,28.711z M14.855,22.539
		c0.187-0.158,0.496-0.346,0.403-0.659c-0.124-0.345-0.591-0.563-0.902-0.283c-0.063,0.188-0.343,0.377-0.125,0.596
		C14.356,22.412,14.637,22.601,14.855,22.539z M17.406,27.867c0.188,0.251,0.531,0.093,0.75-0.096
		c0.091-0.218,0.061-0.531-0.124-0.72c-0.251-0.25-0.625-0.063-0.843,0.157C17.032,27.46,17.219,27.679,17.406,27.867z
		 M48.534,6.574l-0.175,2.908l2.15-1.95l2.146,1.95l-0.171-2.908l2.853-0.478l-2.365-1.676l1.408-2.542l-2.777,0.815L50.509,0
		l-1.096,2.694l-2.775-0.815l1.409,2.542l-2.367,1.676L48.534,6.574z M19.494,28.929c0.154,0.22,0.371,0.473,0.684,0.442
		c0.217-0.126,0.496-0.346,0.53-0.597c-0.126-0.345-0.499-0.596-0.842-0.47C19.616,28.368,19.494,28.679,19.494,28.929z
		 M46.046,12.351h9.23c0.425,0,0.768-0.345,0.768-0.775c0-0.427-0.343-0.776-0.768-0.776h-9.23c-0.424,0-0.767,0.35-0.767,0.776
		C45.279,12.005,45.622,12.351,46.046,12.351z M54.975,11.047h0.343c0.646,0,0.607,1.091,0.005,1.091
		C54.837,12.138,54.072,11.047,54.975,11.047z M51.193,11.047h0.903c0.485,0,1.34,1.091,0.436,1.091H51.63
		C51.146,12.138,50.292,11.047,51.193,11.047z M47.414,11.047h0.901c0.484,0,1.338,1.091,0.436,1.091h-0.903
		C47.367,12.138,46.513,11.047,47.414,11.047z M13.052,22.57c0.215-0.098,0.34-0.346,0.34-0.597c-0.125-0.22-0.34-0.533-0.685-0.409
		c-0.249,0.126-0.435,0.409-0.28,0.721C12.554,22.472,12.801,22.662,13.052,22.57z M13.734,23.885
		c0.155,0.22,0.343,0.502,0.716,0.378c0.125-0.158,0.467-0.314,0.341-0.626c-0.155-0.286-0.341-0.537-0.714-0.441
		C13.859,23.384,13.67,23.57,13.734,23.885z M13.859,26.641c0.154,0,0.25-0.186,0.218-0.313c-0.562-0.469-0.81-0.94-1.276-1.474
		c-0.405-0.531-0.995-0.657-1.524-1.066c-0.219,0.036-0.622-0.248-0.716,0.096C11.307,24.983,12.336,26.547,13.859,26.641z
		 M11.152,22.069c-0.249,0.123-0.437,0.438-0.407,0.75c0.158,0.25,0.407,0.532,0.78,0.439c0.215-0.219,0.496-0.407,0.405-0.786
		C11.774,22.192,11.461,22.036,11.152,22.069z M11.461,21.376c0.25-0.123,0.345-0.408,0.405-0.688
		c-0.092-0.249-0.311-0.313-0.529-0.407c-0.218,0.03-0.464,0.062-0.592,0.283c-0.091,0.219-0.061,0.501,0.128,0.659
		C10.994,21.376,11.277,21.376,11.461,21.376z M80.859,26.143c0.436-0.41,0.218-1.191,0.342-1.787
		c-0.064-0.815-0.312-1.598-0.622-2.257c-0.094-0.155-0.094-0.47-0.343-0.375c-0.188,1.064-0.686,2.35-0.124,3.448
		C80.391,25.451,80.421,25.984,80.859,26.143z M13.486,21.565c0.154-0.03,0.124,0.284,0.279,0.126c-0.185-0.689-0.185-1.726,0-2.476
		c-0.125-0.627-0.373-1.158-0.932-1.537c-0.094-0.061-0.249-0.03-0.311,0.063C12.833,18.965,12.272,20.688,13.486,21.565z
		 M74.541,63.628c-0.154,0.063-0.342,0.156-0.403,0.345c-0.094,0.219-0.064,0.535,0.154,0.629c0.218,0.093,0.562,0.186,0.747-0.033
		c0.093-0.155,0.308-0.314,0.188-0.502C75.071,63.848,74.822,63.596,74.541,63.628z M88.576,22.442
		c-0.247,0.158-0.436,0.438-0.341,0.753c0.094,0.345,0.403,0.441,0.716,0.375c0.312-0.092,0.434-0.438,0.468-0.751
		C89.262,22.57,88.92,22.254,88.576,22.442z M89.757,22.192c0.283,0.094,0.499-0.156,0.656-0.313
		c0.03-0.188,0.216-0.503-0.032-0.625c-0.186-0.096-0.341-0.222-0.59-0.158c-0.312,0.094-0.437,0.406-0.437,0.719
		C89.418,22.036,89.602,22.036,89.757,22.192z M86.491,30.999c0.405,0.252,0.872,0.378,1.246,0.691
		c0.653,0.594,1.772,0.5,2.52,0.126c0.032-0.064,0.093-0.251-0.032-0.284c-0.995-0.03-1.711-0.878-2.612-1.003
		C87.206,30.624,86.647,30.591,86.491,30.999z M90.537,20.154c0.249-0.155,0.592-0.5,0.404-0.845
		c-0.187-0.283-0.499-0.345-0.807-0.314c-0.283,0.158-0.468,0.473-0.377,0.817C89.946,20.061,90.256,20.218,90.537,20.154z
		 M88.92,29.526c-0.218,0.158-0.375,0.347-0.344,0.598c0.062,0.248,0.344,0.438,0.624,0.376c0.185-0.188,0.467-0.409,0.434-0.723
		C89.479,29.526,89.199,29.494,88.92,29.526z M84.221,27.114c0.372-0.158,0.622-0.438,0.527-0.909
		c-0.155-0.157-0.249-0.313-0.437-0.377c-0.123,0-0.279,0-0.37,0.094c-0.282,0.096-0.466,0.375-0.436,0.689
		C83.659,26.861,83.877,27.144,84.221,27.114z M90.473,25.293c-1.089,1.194-2.083,2.291-2.736,3.636
		c0.341,0.22,0.715-0.123,1.059-0.25c1.212-0.658,1.866-2.038,1.928-3.386H90.473z M88.513,39.775
		c0.063,0.157,0.188,0.096,0.313,0.096c1.742-0.503,2.801-2.102,3.796-3.512c-0.249-0.126-0.592,0-0.84,0.126
		C90.134,36.893,89.573,38.649,88.513,39.775z M12.77,27.959c-0.56-0.499-1.089-1.066-1.681-1.473
		c-0.652-0.158-1.213-0.469-1.898-0.408c-0.217,0.094-0.623-0.03-0.654,0.314c1.089,0.313,1.806,1.221,2.865,1.599
		C11.867,27.991,12.366,28.241,12.77,27.959z M88.702,21.691c0.623-1.191,0.434-2.853-0.437-3.887
		c-0.219-0.219-0.061-0.72-0.467-0.782c-0.559,1.316-0.061,2.791,0.562,3.947C88.42,21.222,88.359,21.661,88.702,21.691z
		 M84.405,27.613c-0.217,0.066-0.434,0.22-0.464,0.472c0,0.406,0.404,0.471,0.714,0.564c0.248-0.125,0.53-0.374,0.406-0.721
		C84.937,27.741,84.686,27.521,84.405,27.613z M85.713,28.305c0.094,0.313,0.404,0.438,0.746,0.374
		c0.095-0.123,0.188-0.155,0.313-0.25c0.249-0.155,0.03-0.409-0.064-0.563c-0.155-0.125-0.312-0.283-0.528-0.219
		C85.932,27.802,85.651,27.959,85.713,28.305z M87.737,22.57c0.403-0.063,0.373-0.501,0.373-0.847
		c-0.154-0.188-0.373-0.347-0.622-0.347c-0.313,0.126-0.498,0.439-0.467,0.754C87.115,22.38,87.363,22.692,87.737,22.57z
		 M89.573,24.763c0.06-0.407,0.684-0.814,0.716-1.222c-0.964,0.248-1.869,0.783-2.521,1.63c-0.343,0.562-0.903,1.126-0.84,1.754
		c0.279-0.032,0.528-0.25,0.716-0.408C88.483,26.237,89.23,25.609,89.573,24.763z M85.651,26.393c0.281-1.004,0.25-2.1-0.157-3.008
		c-0.309-0.188-0.467-0.597-0.497-0.942c-0.094-0.188-0.219-0.373-0.434-0.218c-0.252,0.533-0.375,1.126-0.375,1.784
		c0.217,0.912,0.839,1.694,1.275,2.538L85.651,26.393z M21.171,62.028c-0.061-0.31-0.309-0.5-0.622-0.531
		c-0.185,0.063-0.434,0.124-0.498,0.345c-0.155,0.218,0.064,0.375,0.126,0.563c0.187,0.125,0.404,0.221,0.621,0.125
		C21.048,62.438,21.08,62.153,21.171,62.028z M21.578,64.319c0.248-0.19,0.373-0.505,0.311-0.849
		c-0.156-0.375-0.53-0.438-0.84-0.405c-0.375,0.188-0.405,0.594-0.375,0.907C20.798,64.38,21.235,64.38,21.578,64.319z
		 M11.806,59.147c-0.126,0.281-0.654,0.623-0.529,0.908c1.182-0.094,2.021-1.035,2.488-2.069c0.154-0.439,0.624-0.69,0.624-1.128
		h-0.187C13.297,57.517,12.302,58.083,11.806,59.147z M21.235,56.421c0.094-0.188,0.466-0.253,0.343-0.598
		c-0.188-0.188-0.313-0.502-0.656-0.407c-0.185,0.063-0.249,0.188-0.403,0.313c-0.094,0.282,0.094,0.469,0.249,0.658
		C20.862,56.512,21.11,56.483,21.235,56.421z M20.208,57.768c0.092,0.249,0.341,0.315,0.56,0.375
		c0.313-0.06,0.498-0.248,0.591-0.533c-0.062-0.344-0.405-0.47-0.716-0.47C20.425,57.296,20.177,57.454,20.208,57.768z
		 M21.171,59.301c-1.647,0.158-3.483,1.068-4.044,2.759c0.313,0.188,0.467-0.154,0.716-0.248c1.308-0.314,2.272-1.601,3.328-2.26
		V59.301z M19.211,57.484c-0.215-0.188-0.311-0.471-0.684-0.345c-0.157,0.156-0.436,0.345-0.372,0.628
		c0.124,0.219,0.309,0.407,0.59,0.375C18.996,58.017,19.241,57.829,19.211,57.484z M22.573,62.907
		c0.249-0.123,0.343-0.409,0.435-0.596c-0.124-0.252-0.405-0.564-0.714-0.532c-0.158,0.095-0.374,0.126-0.437,0.28
		c-0.094,0.22,0,0.438,0.094,0.629C22.136,62.845,22.324,62.971,22.573,62.907z M21.048,65.885v0.157
		c0.496,0.313,0.995-0.157,1.494-0.25c0.871-0.503,1.056-1.568,1.12-2.444C22.884,64.224,21.701,64.943,21.048,65.885z
		 M26.617,65.101c-0.373-0.406-0.716-1.002-1.18-1.316c-0.064-0.032-0.158-0.032-0.218,0.063c0.309,1.096,0.218,2.35,0.901,3.292
		c0.343,0.313,0.562,0.907,1.089,0.846c-0.249-0.785,0-1.758-0.434-2.477C26.806,65.319,26.557,65.319,26.617,65.101z
		 M76.999,61.937c0.407-0.125,0.935-0.376,1.123-0.815c-0.094-0.127-0.313-0.093-0.407-0.03c-1.089-0.285-2.148-0.063-3.174,0.155
		c-0.154,0.156-0.467,0.063-0.497,0.314C74.979,61.812,75.944,62.312,76.999,61.937z M76.004,66.104
		c-1.15,0.47-2.084,1.63-2.397,2.819c-0.03,0.126-0.092,0.377,0.063,0.47c0.807-0.877,1.991-1.473,2.428-2.632
		C76.004,66.513,76.501,66.169,76.004,66.104z M28.298,59.459c-0.03,0-0.062-0.03-0.03-0.063l-1.493-0.249
		c-0.967-0.127-1.836,0.312-2.742,0.594c-0.123,0.029-0.185,0.188-0.153,0.283C25.312,60.867,27.054,60.339,28.298,59.459z
		 M24.22,58.425c-0.187-0.159-0.339-0.282-0.588-0.219c-0.188,0.188-0.53,0.25-0.373,0.627c0.092,0.346,0.464,0.438,0.746,0.377
		C24.316,59.052,24.254,58.675,24.22,58.425z M5.644,39.652c0.187,0.063,0.341-0.065,0.5-0.128c0.061-0.188,0.249-0.313,0.215-0.531
		c-0.091-0.284-0.374-0.407-0.622-0.472c-0.311,0.096-0.496,0.346-0.56,0.626C5.269,39.368,5.425,39.557,5.644,39.652z
		 M13.173,29.276c-0.185,0.126-0.466,0.062-0.528,0.346c-0.123,0.221,0,0.47,0.156,0.628c0.157,0.122,0.372,0.28,0.59,0.157
		c0.313-0.126,0.437-0.375,0.373-0.754C13.61,29.434,13.455,29.308,13.173,29.276z M11.62,30.718
		c-0.033,0.156-0.127,0.471,0.092,0.596c0.187,0.094,0.405,0.188,0.624,0.063c0.091-0.126,0.371-0.188,0.249-0.439
		C12.458,30.561,11.898,30.184,11.62,30.718z M6.049,41.876c1.369,0.439,2.861-0.03,4.013-0.719l0.124-0.224l-0.092-0.093
		c-1.493-0.219-3.019,0-4.168,0.847L6.049,41.876z M11.337,38.021c-0.683-1.128-0.995-2.257-2.147-3.07
		c-0.126,0-0.311,0-0.311,0.123c-0.03,1.38,0.716,2.696,1.899,3.229c0.34-0.063,0.588,0.314,0.84,0.126
		C11.741,38.177,11.432,38.146,11.337,38.021z M12.675,37.77c0.935,0.939,2.273,1.378,3.581,0.91
		c0.155-0.063,0.465-0.063,0.373-0.343c-1.059-0.787-2.552-0.535-3.828-0.849C12.675,37.519,12.675,37.644,12.675,37.77z
		 M11.867,57.266c0.032-0.47-0.59-0.656-0.933-0.377c-0.031,0.158-0.188,0.284-0.155,0.502c0.094,0.253,0.309,0.345,0.558,0.377
		C11.648,57.735,11.774,57.547,11.867,57.266z M15.042,30.47c0.06-0.19,0.341-0.286,0.249-0.535
		c-0.156-0.379-0.811-0.627-1.059-0.158c-0.219,0.284,0.03,0.565,0.249,0.752C14.667,30.654,14.888,30.561,15.042,30.47z
		 M13.143,31.063c-0.185,0.251-0.061,0.596,0.218,0.783c0.155,0.064,0.404,0.125,0.528-0.061c0.064-0.188,0.249-0.283,0.188-0.534
		C13.889,30.906,13.486,30.718,13.143,31.063z M9.687,40.059c0.067-0.157,0.252-0.251,0.158-0.472
		c-0.091-0.25-0.282-0.47-0.592-0.439c-0.218,0.127-0.437,0.283-0.403,0.598c0.03,0.221,0.281,0.281,0.403,0.438
		C9.439,40.245,9.532,40.059,9.687,40.059z M8.258,38.271c0.125,0.189,0.219,0.314,0.403,0.408c0.313,0.063,0.592,0,0.778-0.282
		c0.032-0.126,0-0.346-0.063-0.47c-0.154-0.158-0.342-0.221-0.591-0.249C8.537,37.77,8.288,37.958,8.258,38.271z M9.13,28.241
		c0.06,0.157,0.154,0.315,0.247,0.408c0.405,0.126,0.716-0.031,0.841-0.408c-0.092-0.344-0.373-0.5-0.746-0.534
		C9.223,27.802,9.159,28.021,9.13,28.241z M7.354,38.337c0.282-0.034,0.158-0.316,0.313-0.441c-0.062-0.313-0.313-0.407-0.56-0.533
		c-0.25,0.063-0.529,0.375-0.405,0.689C6.827,38.303,7.106,38.461,7.354,38.337z M10.655,38.867
		c-0.283,0.156-0.249,0.438-0.249,0.72c0.154,0.128,0.249,0.379,0.528,0.346c0.279-0.031,0.373-0.251,0.433-0.47
		C11.367,39.056,11.028,38.742,10.655,38.867z M10.406,43.693c0.249-0.471,0.588-0.813,0.682-1.347
		c0.031-0.188,0.249-0.282,0.155-0.533l-0.091-0.063c-1.277,0.565-2.243,1.473-3.144,2.632l0.125,0.253
		C8.974,44.413,9.813,44.413,10.406,43.693z M7.231,39.775c0.155,0.283,0.465,0.565,0.84,0.438c0.187-0.155,0.405-0.376,0.311-0.689
		c-0.155-0.156-0.311-0.469-0.592-0.469C7.479,39.147,7.261,39.493,7.231,39.775z M37.493,42.412c0.326,0,0.588-0.232,0.588-0.515
		c0-0.289-0.262-0.52-0.588-0.52c-0.323,0-0.585,0.23-0.585,0.52C36.908,42.18,37.17,42.412,37.493,42.412z M19.742,52.845
		c0.061,0.189,0.185,0.44,0.403,0.471c0.155,0.03,0.436,0,0.562-0.154c0.185-0.158,0.215-0.439,0.155-0.657
		c-0.188-0.285-0.467-0.254-0.716-0.254C19.896,52.408,19.742,52.563,19.742,52.845z M21.421,50.935
		c-0.092,0.126-0.281,0.094-0.373,0.281c-0.094,0.188-0.032,0.408,0.187,0.534c0.155,0.157,0.403,0.093,0.591,0
		c0.063-0.159,0.217-0.254,0.125-0.408C21.857,51.121,21.638,51.028,21.421,50.935z M12.053,54.038
		c-0.187,0.092-0.313,0.187-0.434,0.343c-0.188,0.219,0.155,0.377,0.215,0.565c0.156,0.032,0.437,0.096,0.592-0.061
		c0.249-0.063,0.188-0.379,0.218-0.598C12.522,54.038,12.24,54.13,12.053,54.038z M15.291,54.758v-0.219
		c-1.182-0.847-2.118-2.102-3.671-2.102c-0.188,0.066,0,0.188,0,0.284c0.716,0.313,1.213,0.94,1.647,1.566
		C13.828,54.728,14.541,54.916,15.291,54.758z M4.677,53.381c-0.125,0.249-0.028,0.593,0.25,0.749
		c0.249,0.095,0.529,0.032,0.716-0.126c0.187-0.251,0.093-0.47,0-0.688C5.425,52.941,4.866,53.097,4.677,53.381z M36.958,40.405
		c0-0.273-0.222-0.497-0.496-0.497c-0.272,0-0.494,0.224-0.494,0.497c0,0.279,0.222,0.498,0.494,0.498
		C36.736,40.903,36.958,40.685,36.958,40.405z M35.664,41.223c-0.323,0-0.585,0.23-0.585,0.517c0,0.287,0.262,0.517,0.585,0.517
		s0.588-0.229,0.588-0.517C36.252,41.453,35.987,41.223,35.664,41.223z M21.701,53.097c0.156,0.188,0.28,0.377,0.529,0.345
		c0.218-0.188,0.467-0.249,0.437-0.597c-0.125-0.219-0.407-0.407-0.656-0.341C21.857,52.657,21.578,52.784,21.701,53.097z
		 M28.455,50.34c0.279-0.096,0.436-0.252,0.467-0.535c-0.063-0.217-0.311-0.437-0.593-0.468c-0.217,0.156-0.53,0.314-0.404,0.688
		C28.019,50.214,28.236,50.34,28.455,50.34z M19.584,50.621c-0.249,0.158-0.373,0.439-0.249,0.721
		c0.124,0.219,0.343,0.343,0.654,0.282c0.281-0.094,0.405-0.314,0.405-0.596C20.27,50.779,19.927,50.4,19.584,50.621z
		 M79.988,50.088c-1.617-0.126-3.486-0.126-4.515,1.128l0.158,0.126l1.681,0.03c1.027,0,1.9-0.593,2.676-1.096V50.088z
		 M79.52,53.285c0.344-0.158,0.623-0.409,0.499-0.848c-0.125-0.438-0.717-0.438-0.964-0.188c-0.096,0.158-0.312,0.284-0.219,0.534
		C78.992,53.034,79.178,53.253,79.52,53.285z M72.642,50.653c0.218,0.126,0.406,0.281,0.686,0.219
		c0.31-0.123,0.403-0.439,0.467-0.723c-0.218-0.562-1.029-0.562-1.244,0C72.582,50.307,72.487,50.525,72.642,50.653z M85.027,51.938
		c-1.679-0.377-3.389,0.251-4.511,1.474c-0.062,0.063-0.032,0.155,0.063,0.219c0.155,0.032,0.28-0.063,0.403-0.096
		c1.557-0.061,3.082-0.342,4.169-1.315C85.215,52.062,85.027,52.03,85.027,51.938z M100.744,42.347
		c-0.497-0.908-1.338-1.285-2.333-1.285c-0.81,0.061-1.402,0.596-1.745,1.285c-0.185,0.689,0.064,1.316,0.591,1.724
		c0.219,0.095,0.5,0.064,0.624-0.156c0.157-0.41-0.28-0.41-0.343-0.722c-0.125-0.438,0.032-0.814,0.343-1.098
		c0.311-0.314,0.839-0.155,1.212-0.155c0.375,0.25,0.75,0.47,0.935,0.906c0.188,0.535,0.188,1.131,0,1.663
		c-0.344,0.782-1.12,1.41-1.93,1.568c-2.583,0.375-30.933,0.25-30.933,0.25c-3.328,0.313-7.125-0.629-9.988,1.128
		c-1.308,0.628-1.96,2.07-2.303,3.354c-0.84,0.751-1.742,1.628-2.427,2.476l-0.094-0.093c0.154-0.755,0.497-1.412,0.654-2.164
		c0.465-0.628,0.465-1.471,0.81-2.164c1.182-1.909,2.301-3.854,4.137-5.201c0.78-1.036,2.148-0.845,3.33-0.845
		c1.276,0.593,2.77,0.781,4.325,0.626c0.064-0.063,0.094-0.126,0.094-0.222c-0.435-0.404-1.151-0.563-1.649-0.97
		c-1.244-0.596-2.427,0.188-3.733,0.094c-0.063-0.062-0.124-0.094-0.094-0.188c1.184-0.879,2.521-1.507,3.86-2.069
		c1.089-0.597,2.239-0.91,3.392-1.348c0.464,0,0.901-0.405,1.338-0.125c-0.935,1.816-1.775,3.761-3.208,5.297
		c-0.467,0-0.746,0.499-1.212,0.532c-0.25,0.345-0.748,0.094-1.057,0.22c-0.965,0.407-2.336,0.157-2.989,1.064
		c0.062,0.093,0.155,0.128,0.249,0.158c1.898,0.03,4.014,0.154,6.039,0.062c0.249-0.092,0.467-0.314,0.497-0.596
		c-0.279-0.531,0.094-1,0.343-1.41c0.155-0.752,0.652-1.222,0.871-1.942c0.652-1.287,1.398-2.539,2.115-3.825
		c0.064,0.033,0.126,0.126,0.25,0.095c1.4-0.47,3.175-0.031,4.759-0.062l0.22,0.188c0.157,1.504-0.126,3.041-0.281,4.544
		c-0.527,1.821-2.612,1.631-4.108,2.038c-0.373,0.252-1.089,0.125-1.089,0.751c1.806,0.378,3.924,0.158,5.85,0.128
		c0.313-0.128,0.376-0.408,0.532-0.692c0.061-0.403,0.467-0.753,0.343-1.189c-0.343-0.439-0.03-1.131-0.125-1.724
		c0.061-0.158,0.061-0.377,0-0.596c0.249-0.909,0.185-2.005,0.373-2.883c0.558,0.063,0.809,0.719,1.399,0.75
		c0.313-0.438-0.343-0.627-0.498-0.907c0.686-0.156,1.462,0.032,2.084,0.312l-0.309,0.346c-0.188,0.343,0.094,0.597,0.373,0.722
		c0.218,0.063,0.373-0.095,0.528-0.158c0.406-0.281-0.03-0.563,0.094-0.814c2.302,0.407,4.511,0.973,6.629,1.88
		c0.589,0.188,1.149,0.626,1.806,0.598c-0.656-0.598-1.557-0.909-2.367-1.256c-0.53-0.313-1.276-0.344-1.681-0.782
		c0.094-0.158,0.313-0.095,0.405-0.218c1.058-0.128,1.962-0.908,2.708-1.757c0.061-0.187,0.403-0.126,0.373-0.377
		c-0.28-0.313-0.747,0.093-1.119,0.063c-1.309,0.25-1.87,1.785-3.174,2.07c-1.586-0.378-3.208-0.754-4.794-1.162
		c-0.778-0.125-1.617-0.188-2.333-0.5c0-0.596,0.155-1.163,0.215-1.724c0.094-0.188,0.158-0.408,0.129-0.658
		c0.092-0.125,0.196-0.228,0.311-0.314l0.639-0.293c0.763-0.206,1.707-0.05,2.502,0.01c0.467,0.251,1.059,0.219,1.556,0.347
		c0.219-0.158,0.528-0.188,0.776-0.158c0.999-0.533,0.343-1.691,0.407-2.602c0.871-0.783,1.647-1.661,2.363-2.569
		c0.03-0.25-0.124-0.504-0.342-0.596c-0.217-0.097-0.464-0.061-0.623,0.124c-0.373,0.284,0,0.627,0,0.974
		c-0.373,0.5-0.965,0.939-1.429,1.222c-0.012-0.003-0.108,0.034-0.266,0.099l-0.076-0.193c-0.095-0.188-0.188-0.407-0.25-0.627
		c-0.188-0.217-0.313-0.628-0.497-0.847c-0.532-1.379-1.557-2.164-2.429-3.26c-1.589-2.069-4.077-3.227-6.568-4.045
		c-2.458-0.843-4.949,0.252-7.157,1.037c-0.683-0.188-1.025-0.722-1.214-1.316c-0.125-1.19,0.125-2.35,0.592-3.324
		c0.096-0.781,0.622-1.378,0.84-2.1c0.562-1.754,1.15-3.479,1.277-5.389c0.061-1.16-0.81-1.977-1.681-2.476
		c-0.592-0.158-1.277-0.126-1.711,0.345c-0.406,0.845-1.277,1.408-2.023,1.817c-0.063,0.535,0.591,0.188,0.81,0.376
		c0.682,0.125,1.462-0.096,2.021,0.343c0.064,1.254-0.652,2.29-1.306,3.229c-1.057,1.568-2.177,3.167-2.833,4.892l-0.023-0.024
		l0.001-1.629h-0.001v-0.012H46.565c-0.749-0.253-1.331-1.033-2.148-1.033c-1.742-0.69-2.893,1.129-4.668,0.911
		c-0.216,0.126-0.154,0.344-0.279,0.5c-0.092,0.094-0.249,0.032-0.343-0.032c-0.093-0.751-0.341-1.44-0.437-2.163
		c-0.185-0.313-0.092-0.751-0.247-1.066c-0.995-2.726,2.425-0.657,3.111-2.254c0.593-1.382-1.152-1.538-1.679-2.508v-0.408
		c-0.498-0.503-1.027-0.657-1.34-1.318c0.218-0.781,0.313-1.628,0.094-2.414c-0.032-0.185-0.157-0.438-0.436-0.343
		c-0.591,0.815-1.027,1.474-1.586,2.257c-0.592-0.438-1.153-1.003-1.836-1.38c-0.467-0.063-0.902-0.535-1.43-0.346
		c-0.094,0.188,0,0.346,0.092,0.471c0.032,1.222,0.652,2.195,1.523,3.073l0.094,0.469c-0.56,1.286-0.404,2.76-0.56,4.139
		c-1.4,3.572-3.671,7.02-6.752,9.497c-1.773,2.004-3.89,3.948-4.17,6.706c-0.092,0.44,0.064,0.971-0.281,1.286
		c-1.027-0.375-2.052-0.877-2.893-1.535c-1.432-1.004-3.487-0.877-4.419-2.698c-0.375-0.719,0.094-1.44,0.436-1.973
		c1.057-1.003,0.903-2.789,0.343-4.009c-0.125-0.033-0.156,0.123-0.249,0.155c-0.094,1.848-1.557,3.135-0.996,5.17
		c0.125,0.596,0.434,0.973,0.588,1.534c-0.215-0.06-0.527-0.06-0.714-0.154c-0.684-0.096-1.37-0.377-2.086-0.284
		c-1.431,0.659-3.391-0.153-4.542,1.161c-0.188,0.032-0.436,0.063-0.373,0.344c0.682,0,1.338,0.188,2.024,0.158
		c1.086,0.188,1.804-0.72,2.552-1.128h0.185c0.313-0.315,0.84-0.126,1.246-0.188c1.959,0.22,3.484,1.158,5.105,2.131v0.123
		c-0.624,0.286-1.338,0.474-1.962,0.818c-0.716,0.533-1.525,1.224-1.743,2.099c-0.498,0.784,0.155,1.475,0.467,2.132
		c0.03,0.313,0.061,0.69,0.341,0.816c0.997-1.065,0.062-2.382,0.218-3.606c0.249-0.941,1.121-1.38,2.022-1.628
		c1.775-0.754,3.051,0.687,4.48,1.506c-0.031,1.438,0.158,2.817-0.155,4.228c-0.436,0.156-0.996,0.251-1.462,0.223
		c-2.459,0.186-4.387,1.533-6.598,2.287c-0.993,0.344-2.177,0.314-3.172,0.687c0.776,0.221,1.585-0.061,2.396-0.093
		c3.049-0.44,5.384-2.79,8.682-2.383l0.061,0.095c-0.372,0.784-0.87,1.443-1.461,2.038c-0.094-0.344-0.125-0.628-0.437-0.816
		c-0.249-0.125-0.528,0-0.713,0.252c-0.094,0.156-0.094,0.345,0,0.469c0.155,0.283,0.404,0.346,0.683,0.438
		c-0.061,0.281-0.403,0.409-0.592,0.66c-0.871,1.473-2.644,0.877-3.671,1.91c-0.157,0.222-0.716,0.347-0.467,0.691
		c1.183,0.125,2.334-0.19,3.206-0.817c1.151-1.283,2.365-2.505,3.517-3.729c0.185,1.003-0.093,2.04-0.685,2.853
		c-0.281-0.156-0.497-0.375-0.84-0.471c-0.311,0.063-0.528,0.378-0.56,0.628c0.123,0.219,0.249,0.468,0.465,0.631
		c-1.056,0.747-2.396,0.812-3.609,1.156c-2.271,0.281-4.479,0.47-6.786,0.501c-1.086-0.065-2.333,0.313-3.359,0
		c-1.183,0.22-2.459-0.157-3.426,0.5c-0.123,0.158,0.03,0.312,0.03,0.47c1.436,0.942,3.396,0.188,5.013,0.473h12.261
		c0.904-0.031,1.805-0.065,2.521-0.473c1.586-0.908,2.458-2.539,3.268-4.135c0.311-0.567,0.528-1.221,0.652-1.884
		c0.311-1.061,1.276-1.815,2.335-1.91c0.154,1.63-0.156,3.262-0.529,4.767c-0.187,1.001-0.84,1.973-0.436,3.039
		c0.092,0.5,0.622,0.5,1.027,0.564c3.766-0.064,7.531-0.219,11.515,0.063c0.714,0.124,1.338,0.343,2.115,0.313
		c0.064-0.096,0.281-0.125,0.187-0.313c-0.092-0.347-0.341-0.785-0.746-0.877c-0.063-0.189-0.342-0.127-0.436-0.253
		c-1.991-1.128-4.387-0.533-6.722-0.501c-1.214,0.126-2.427,0.346-3.455-0.344c-0.465-0.565-0.124-2.352-0.124-2.352
		c0-0.378,0.488-1.959,0.976-3.413c0.941,0.26,3.289,1.689,3.289,1.689c1.087,0.407,2.084,1.067,3.111,1.66
		c4.231,2.353,7.033,6.239,8.929,10.565c0.033,0.342,0.345,0.719,0.126,1.065c-0.654-1.005-1.587-1.569-2.365-2.383
		c-0.217-1.473-1.089-2.885-2.366-3.481c-0.466-0.688-1.461-0.75-2.239-0.969l-11.327-0.065c-9.211-0.126-17.613,0.284-26.764,0.126
		c-1.274-0.126-2.831-0.565-3.204-1.912c-0.249-0.471-0.249-1.285,0-1.725c0.343-0.594,0.965-0.782,1.585-0.844
		c0.499,0.062,0.84,0.531,1.061,0.881c0,0.402-0.343,0.78-0.499,1.126c0.032,0.124,0.156,0.374,0.375,0.278
		c0.403-0.154,0.714-0.593,0.809-1.002c0.028-0.219,0.123-0.53-0.094-0.688c-0.187-0.658-0.871-1.126-1.462-1.284
		c-0.778-0.067-1.589,0.158-2.117,0.721c-0.746,0.626-0.716,1.755-0.498,2.632c0.498,1.379,1.96,2.317,3.362,2.508l30.279,0.124
		c2.955,0.155,6.285-0.345,9.272,0.251c1.089,0.347,2.24,1.158,2.521,2.382c-0.032,0.063-0.124,0.032-0.218,0.032
		c-2.459-1.598-5.695-2.193-8.838-1.816c-1.244-0.063-2.365,0.407-3.485,0.719c-0.592,0.128-1.151-0.158-1.526-0.5
		c-1.12-1.005-3.079-0.942-4.51-0.565c0,0.096-0.032,0.188,0.032,0.222c1.523-0.126,2.426,1.19,3.795,1.347
		c0.312,0.064,0.56-0.282,0.839-0.031c-1.43,0.688-2.799,1.507-4.325,1.941c-0.467-0.094-0.716-0.531-1.089-0.782
		c-0.592-0.659-1.68-0.377-2.488-0.44c-0.28,0.063-0.529-0.125-0.716,0c0.247,0.503,0.809,0.788,1.338,1.035
		c0.777,0.345,1.68-0.031,2.397,0.44c-0.188,0.22-0.437,0.281-0.656,0.438c-1.462,0.563-2.676,1.879-4.293,1.785
		c-1.711,0.188-3.456-0.313-4.607-1.504c-0.498-1.225-1.774-1.881-3.142-1.815c-0.094,0.061-0.218,0.061-0.188,0.219
		c0.686,0.405,1.213,1.22,1.899,1.689c0.436,0.534,1.276,0,1.679,0.597c0.593,0.408,1.34,0.755,2.026,0.878
		c0.496,0.219,1.055,0.313,1.617,0.438l-0.218,0.126c-2.831,0.941-6.101,1.034-9.272,0.909c-0.935-0.032-1.837-0.312-2.77-0.281
		c0.154,0.187,0.464,0.344,0.746,0.438c-0.249,0.157-0.531,0.221-0.84,0.251c-0.373,0.096-0.809,0.126-1.183,0.316
		c-0.498-0.033-0.935,0.153-1.338,0.312c-0.529,0.563-1.151,1.158-1.773,1.443c0,0.122-0.032,0.312,0.125,0.312
		c0.591-0.252,1.34-0.063,1.93-0.312c1.027-0.099,1.619-1.225,2.429-1.696c0.869-0.687,2.114-0.531,3.173-0.375
		c0.622,0.156-0.064,0.409,0.123,0.814c0.25,0.221,0.467,0.472,0.812,0.376c0.061-0.063,0.121-0.125,0.215-0.155
		c0.188-0.249,0.158-0.533,0.03-0.784c0.437-0.281,1.029,0.032,1.494-0.155c1.184-0.031,2.365-0.284,3.519-0.314
		c0.185-0.032,0.403-0.221,0.59-0.032c-0.092,0.251-0.405,0.281-0.279,0.626c0.061,0.285,0.375,0.411,0.62,0.472
		c0.313-0.123,0.591-0.345,0.469-0.751c-0.062-0.221-0.311-0.252-0.469-0.347c0.655-0.313,1.402-0.405,2.056-0.72
		c0.466-0.095,0.902-0.253,1.306-0.439c0.405-0.032,0.748-0.409,1.12-0.251c-0.155,0.532-0.372,1.033-0.654,1.505
		c-0.496,1.661-0.87,3.855,0,5.454c0.094,0.03,0.126-0.03,0.19-0.063c-0.656-1.661-0.283-3.573,0.279-5.139
		c0.434-2.666,3.174-3.45,5.135-4.453l0.093,0.125c-0.529,1.381-1.308,2.697-1.184,4.358c0.062,0.283-0.125,0.563,0,0.751
		c0.529-0.279,0.873-0.907,1.151-1.44c0.219-1.409-0.59-3.165,0.842-4.199c2.55-1.005,4.947-2.321,7.902-2.352
		c0.094,0.093,0.313-0.063,0.343,0.123c-0.622,0.693-1.525,1.349-1.806,2.196c-0.995,1.38-0.964,3.729-0.529,5.423
		c0.281,0.971-0.558,1.503-0.963,2.259c-0.193,0.266-0.249,0.722-0.429,1.027l0.615,0.068c0.529-0.564,1.027-1.254,1.057-2.07
		c0.062,0.316,0.341,0.565,0.592,0.628c0.217-0.347-0.187-0.596-0.219-0.941c0.498-0.282,0.718,0.346,1.122,0.473
		c0.654,0.157,1.211,0.437,1.898,0.437l0.218-0.219c-0.688-1.065-2.052-1.254-3.238-1.316c-0.62-1.036-0.62-2.319-0.56-3.573
		c0.125-0.659,0.249-1.347,0.622-1.945c0.156-0.436,0.592-0.845,0.873-1.189c0.56-0.53,1.276-0.909,1.959-1.064h0.093
		c0,0.06,0.032,0.095,0.032,0.095c-0.841,0.658-0.934,1.565-1.431,2.378c-0.53,0.788-0.78,1.85-0.281,2.729
		c0.187,0.409,0.094,1.035,0.528,1.316c0.403-0.563,0.438-1.284,0.654-1.911c-0.094-1.035-0.714-2.006-0.125-3.009
		c0.313-0.784,0.965-1.096,1.681-1.379c1.711-0.159,3.206,0.72,4.698,1.379c0.314,0.221,0.84,0.407,0.903,0.845
		c-0.031,0.85-0.498,1.695-1.152,2.101c-0.84,0.502-2.054,0.563-2.832-0.032c-0.466-0.469-0.652-1.284-0.498-1.91
		c0.343-0.377,0.811-0.689,1.37-0.503c0.311,0.156,0.592,0.47,0.997,0.282c0.155-0.094,0.216-0.343,0.123-0.5
		c-0.341-0.188-0.466-0.659-0.933-0.723c-0.591-0.093-1.308-0.063-1.711,0.345c-0.654,0.566-0.904,1.412-0.716,2.196
		c0.217,1.004,0.965,1.723,1.928,2.006c1.432,0.344,2.926-0.094,3.828-1.316c0.375-0.408,0.469-0.848,0.686-1.35
		c1.493,0.91,2.614,2.508,3.206,4.137c0,0.532,0.156,1.098,0.032,1.569l1.086,0.094c-0.091-0.252,0-0.533,0.094-0.752
		c0.407-2.067,1.681-3.794,3.206-5.141c0.53-0.313,0.405,0.407,0.53,0.626c0.467,1.192,1.556,2.039,2.708,2.384
		c1.306,0.217,2.552-0.093,3.36-1.099c0.403-0.753,0.904-1.85,0.218-2.633c-0.437-0.532-1.027-0.814-1.711-0.814
		c-0.811,0-1.306,0.565-1.711,1.158c0,0.252-0.032,0.535,0.185,0.659c0.125,0,0.375,0.034,0.469-0.155
		c0.063-0.471,0.466-0.691,0.839-0.943c0.343-0.183,0.716,0,0.995,0.19c0.343,0.282,0.405,0.753,0.437,1.222
		c-0.064,0.598-0.467,1.224-1.029,1.475c-0.9,0.469-2.208,0.25-2.985-0.285c-0.373-0.407-0.592-0.877-0.871-1.377
		c-0.064-0.5-0.25-0.938,0-1.441c1.368-0.816,2.801-1.409,4.448-1.566c0.654,0.125,1.213,0.563,1.651,1.032
		c1.432,1.476-0.313,3.573,0.684,5.204c0.373-0.063,0.373-0.563,0.529-0.877c0.468-1.128-0.124-2.352-0.405-3.45
		c-0.375-0.688-0.59-1.284-1.182-1.848c0.155-0.062,0.218-0.062,0.373-0.062c0.652,0.437,1.368,0.938,1.898,1.63
		c0.902,1.471,1.37,3.227,1.211,5.142c-0.247,0.938-1.244,1.377-2.02,1.722c-0.311,0.251-0.686,0.628-0.841,1.002
		c0.374,0.22,0.901,0,1.274-0.153c0.591-0.221,0.935-0.975,1.34-1.319c0.062,0.031,0.032,0.126,0.062,0.188
		c0.03,0.346-0.155,0.814,0.155,0.91c0.156-0.438,0.188-1.067,0.281-1.601c0.405,0.439,0.465,1.006,0.591,1.567
		c0.281,0.564,0.749,1.314,1.495,1.411c0.185-0.28-0.032-0.566-0.094-0.815c-0.094-0.786-0.746-1.19-1.183-1.756
		c-1.089-1.503-0.592-3.854-1.431-5.546c-0.311-0.908-0.965-1.569-1.681-2.32l0.125-0.123c1.525-0.034,2.802,0.47,4.201,0.749
		c1.711,0.848,4.202,0.659,5.013,2.886c0.339,1.251,0.901,2.412,1.772,3.384l0.093-0.063c0.185-0.313,0.185-0.847,0-1.158
		c-0.188-1.57-1.556-1.943-2.272-3.262l0.094-0.124c0.746,0.219,1.524,0.407,2.272,0.719c2.488,0.689,4.229,3.135,4.542,5.675
		c0,2.005-0.373,3.667-1.15,5.358c-0.094,0.251-0.531,0.532-0.252,0.753c0.343-0.251,0.407-0.66,0.595-0.939
		c1.026-1.724,1.553-4.105,1.026-6.3c-0.03-0.405-0.498-0.722-0.281-1.131c0.157,0.188,0.345,0.221,0.53,0.286
		c0.188-0.128,0.467-0.128,0.592-0.347c0.031-0.188,0.154-0.409,0-0.567c-0.188-0.279-0.592-0.279-0.901-0.214
		c-0.158,0.184-0.344,0.437-0.377,0.687c-0.309-0.531-0.622-1.222-1.12-1.66l0.065-0.095c1.399,0.47,2.673,1.161,4.106,1.535
		c0.31,0.188,0.653,0.345,1.09,0.345c1.212,0.47,2.552,0.66,3.826,0.973c0.935-0.096,1.711,0.344,2.646,0.123v-0.061l-0.03,0.03
		c-0.344-0.438-1.09-0.03-1.497-0.342c-2.146-0.222-4.199-0.787-6.128-1.535c0.03-0.096,0.154-0.065,0.249-0.065
		c0.309-0.156,0.528-0.439,0.498-0.784c-0.155-0.219-0.403-0.342-0.716-0.342c-0.188,0.091-0.438,0.31-0.468,0.532
		c0.031,0.247,0.25,0.533,0.468,0.594c-0.061,0.065-0.188,0.032-0.28,0.032c-0.965-0.439-1.9-0.849-2.833-1.286
		c-0.343-0.063-0.623-0.347-0.965-0.407c-0.712-0.344-1.432-0.69-2.148-0.97c-1.99-1.038-4.199-1.601-6.314-2.354
		c-0.467-0.125-0.904-0.251-1.341-0.374c-0.777-0.22-1.553-0.409-2.333-0.628c-2.644-0.658-6.193-0.719-8.496,0.722
		c-0.373-0.124-0.592,0.468-0.777,0.095c0.652-1.724,2.552-2.291,4.263-2.354c12.479-0.124,24.18-0.219,36.474-0.405
		c1.432,0,2.83-0.502,3.576-1.786C101.056,44.477,101.147,43.192,100.744,42.347z M75.631,36.391l-0.064,1.034h-3.174
		c-0.03-0.063-0.125-0.095-0.094-0.186c1.124-0.283,2.088-0.942,3.207-1.227L75.631,36.391z M72.393,34.854
		c0.249-0.251,0.373-0.53,0.562-0.847c0.03-0.313-0.125-0.439-0.313-0.658c0.218-0.217,0.561-0.157,0.84-0.217
		c0.78,0.468,1.589,1.222,1.745,2.068c-1.247,0.532-2.491,1.127-3.799,1.41C71.647,36.078,72.02,35.42,72.393,34.854z M61.373,27.44
		c0.992,1.65,2.232,3.532,4.082,4.156c0.995,0.813,2.241,1.784,3.579,1.065c0.714-0.219,0.779,0.784,1.121,1.191
		c0.374,1.16-0.467,1.976-0.531,3.04c-0.125,0.377-0.434,0.596-0.777,0.72c-0.498,0.095-0.904,0.408-1.432,0.408
		c-4.044,1.566-8.247,3.229-11.451,6.426c0.187-0.376,0.281-0.847,0.31-1.316c-0.061-0.471-0.029-1.002-0.34-1.38
		c-0.071-0.164-0.275-0.626-0.23-0.825l3.897-2.475c0.992-0.457,1.708-1.933,1.708-3.622L61.373,27.44z M40.243,30.862
		c0.059,0.076,0.144,0.106,0.254,0.012c0.808-0.532,0.562-1.725,0.562-2.537c0.187-0.973-0.5-1.444-0.78-2.289
		c-0.011-0.008-0.023-0.023-0.035-0.034v-7.179h3.39c0.255,0.103,0.464,0.293,0.754,0.321l0.23-0.321H60.71v16.212
		c-0.113,1.257-0.54,2.299-1.409,2.891l-8.173,5.199h-0.047c-0.171,0.135-0.389,0.222-0.629,0.222c-0.244,0-0.464-0.088-0.64-0.232
		l-8.161-5.188c-0.868-0.592-1.294-1.634-1.409-2.891V30.862z M38.414,23.132c0.184-0.72,0.372-1.378,1.056-1.786
		c0.101,0.073,0.145,0.143,0.155,0.222l0.01-0.007l0.003,3.431C39.346,24.382,38.096,23.913,38.414,23.132z M44.387,43.789v0.062
		c-3.197-2.406-6.729-4.555-10.33-6.245c0.323-0.935,0.604-1.693,0.683-1.842c0.062-0.469,0.249-0.909,0.188-1.439
		c0.247-0.629,0.187-1.442,0.187-2.134c0.125-1.002,0.622-1.941,0.963-2.915c0.187-0.469,0.343-0.971,0.53-1.442
		c0.187-0.594,0.25-1.158,0.624-1.628c0.963,0.612,1.9,0.637,2.41,1.618l0.007,7.005c0,1.688,0.716,3.165,1.705,3.622l3.375,2.144
		C44.775,41.677,44.079,42.639,44.387,43.789z M49.179,50.4c-1.029-2.192-2.365-3.948-3.981-5.734
		c-0.067-0.284-0.345-0.531-0.189-0.846c0.592-0.564,0.716-1.661,0.405-2.382c-0.062-0.158-0.249-0.347-0.215-0.505l-0.256-0.203
		l4.751,3.017c0.184,0.211,0.454,0.344,0.76,0.344c0.264,0,0.501-0.104,0.679-0.267l1.606-1.019
		c-1.174,1.753,0.736,4.31-0.759,5.966v0.123c-0.435,0.567-0.654,1.131-1.244,1.506c-0.747-0.313-1.027-1.158-1.462-1.785
		c-0.687-0.658-0.687-2.007-0.281-2.917c0.281-0.907-0.187-1.689-0.281-2.506L48.4,43.009c-0.746,0.968-1.025,2.504-0.435,3.662
		c0.31,0.564,0.343,1.35,0.809,1.819c0.281,0.909,0.839,1.503,1.34,2.319c0.125,0.312-0.187,0.375-0.343,0.532
		C49.428,51.121,49.49,50.621,49.179,50.4z M51.264,53.911c-0.125,0.377-0.373,0.688-0.343,1.101l-0.124,0.06
		c0.094-0.472-0.372-0.753-0.249-1.251c-0.249-0.379-0.249-0.849-0.465-1.257c-0.279-0.502,0.247-0.721,0.465-1.067
		c0.437,0.188,0.591,0.599,0.903,0.973C51.638,53.003,51.233,53.411,51.264,53.911z M51.075,50.903
		c1.059-1.346,1.899-2.851,2.212-4.576c0.219-0.157,0.061-0.564,0.279-0.752c-0.061-0.502,0.279-1.003,0.032-1.41
		c0.197-0.686-0.91-1.314-0.202-1.756l-0.138,0.067l1.977-1.256c-0.275,0.696-0.513,1.92-0.236,2.63
		c0.094,0.563,0.56,1.223,0.125,1.725c-1.495,1.817-2.335,4.013-3.33,6.081C51.42,51.591,51.233,51.247,51.075,50.903z
		 M38.226,33.006c-0.342,1.222-0.964,2.853-0.126,4.011c0.343,0.034,0.251-0.377,0.279-0.626c0.624-1.035,0.748-2.288,0.375-3.509
		C38.661,32.569,38.286,32.693,38.226,33.006z M5.506,55.432c0,0.307,0.259,0.553,0.577,0.553c0.32,0,0.579-0.246,0.579-0.553
		c0-0.305-0.259-0.554-0.579-0.554C5.765,54.878,5.506,55.127,5.506,55.432z M6.358,54.257c0.249,0.25,0.498,0.566,0.935,0.377
		c0.373-0.064,0.311-0.504,0.249-0.754c-0.217-0.25-0.499-0.28-0.81-0.25C6.515,53.753,6.358,53.974,6.358,54.257z M8.88,54.225
		c0.343,0.188,0.84,0.661,1.153,0.282c-0.72-0.94-0.969-1.943-2.024-2.538c-0.218-0.093-0.467-0.219-0.655-0.345
		c-0.219,0.061-0.498-0.347-0.622,0.032C7.822,52.376,7.791,53.6,8.88,54.225z M34.094,59.422l-0.259,0.264
		C33.946,59.628,34.027,59.534,34.094,59.422z M74.323,48.458c-1.493-0.438-3.111-0.093-4.231,0.849v0.187
		c1.151,0.032,2.301,0.032,3.266-0.47C73.638,48.739,74.323,48.832,74.323,48.458z M80.64,40.56
		c-0.219,0.063-0.312,0.251-0.498,0.409c0,0.188,0,0.374,0.157,0.47c0.186,0.187,0.466,0.219,0.684,0.123
		c0.125-0.153,0.468-0.312,0.343-0.628C81.201,40.715,80.923,40.56,80.64,40.56z M79.055,39.838
		c-0.345,0.158-0.499,0.472-0.439,0.814c0.188,0.128,0.376,0.221,0.596,0.251c0.249-0.188,0.622-0.312,0.463-0.721
		C79.49,39.966,79.336,39.838,79.055,39.838z M12.085,43.351c0.187,0.187,0.373,0.313,0.716,0.249
		c0.157-0.125,0.405-0.344,0.281-0.628c-0.156-0.153-0.313-0.405-0.56-0.375C12.272,42.723,11.867,43.009,12.085,43.351z
		 M81.48,42.474c-0.03,0.219,0.219,0.372,0.313,0.498c0.403,1.254,1.775,1.914,2.83,2.506c0.062,0,0.219,0.035,0.279-0.059
		c-0.125-0.376-0.403-0.91-0.682-1.254c-0.125-0.345-0.374-0.502-0.592-0.814C83.067,42.913,82.291,42.315,81.48,42.474z
		 M86.18,41.157c-0.125-0.316-0.498-0.347-0.716-0.347c-0.249,0.093-0.497,0.347-0.403,0.598c0.09,0.342,0.497,0.438,0.807,0.342
		C86.056,41.625,86.18,41.408,86.18,41.157z M72.299,40.464c-0.155,0.033-0.309,0.128-0.403,0.251
		c-0.094,0.158-0.03,0.347,0.03,0.473c0.218,0.063,0.467,0.313,0.686,0.093c0.219-0.123,0.281-0.252,0.249-0.5
		C72.766,40.528,72.517,40.528,72.299,40.464z M70.154,40.592c-0.062,0.281,0.094,0.47,0.31,0.596
		c0.282,0.184,0.531-0.126,0.716-0.254c0.032-0.093,0.094-0.312-0.061-0.374C70.962,40.214,70.309,40.245,70.154,40.592z
		 M70.87,39.056c-0.094,0.281,0.125,0.469,0.31,0.659c0.313,0.156,0.561-0.063,0.746-0.316c0-0.124,0.034-0.281-0.03-0.405
		C71.647,38.586,71.119,38.709,70.87,39.056z M86.334,43.097c0.219-0.155,0.53-0.216,0.468-0.593
		c-0.094-0.251-0.374-0.47-0.686-0.409c-0.185,0.158-0.498,0.283-0.404,0.628C85.838,42.941,86.056,43.097,86.334,43.097z
		 M73.606,40.214c0.313-0.124,0.407-0.438,0.343-0.751c-0.155-0.218-0.343-0.346-0.622-0.346c-0.374,0.063-0.404,0.407-0.562,0.658
		C72.924,40.026,73.234,40.341,73.606,40.214z M82.54,41.438c0.218-0.067,0.527-0.188,0.467-0.505
		c-0.218-0.247-0.497-0.563-0.935-0.374c-0.06,0.155-0.249,0.281-0.249,0.469C81.978,41.28,82.166,41.562,82.54,41.438z
		 M15.383,41.906c0.311-0.126,0.25-0.377,0.375-0.626c-0.188-0.281-0.467-0.565-0.841-0.377c-0.156,0.158-0.405,0.254-0.311,0.598
		C14.699,41.75,15.072,42.034,15.383,41.906z M87.05,43.475c-0.186,0.157-0.029,0.407,0.031,0.564
		c0.219,0.22,0.468,0.126,0.716,0.096c0.094-0.126,0.343-0.253,0.313-0.441C87.892,43.381,87.394,43.036,87.05,43.475z
		 M12.77,42.034c0.188,0.061,0.467,0.094,0.622-0.095c0.063-0.159,0.249-0.282,0.158-0.501c-0.063-0.316-0.343-0.439-0.624-0.505
		c-0.219,0.095-0.311,0.188-0.499,0.347C12.336,41.625,12.554,41.846,12.77,42.034z M19.989,41.408
		c0.032-0.19,0.25-0.409,0.062-0.598c-0.187-0.158-0.341-0.282-0.624-0.313c-0.247,0-0.247,0.218-0.432,0.283
		c-0.064,0.248-0.096,0.658,0.215,0.781C19.494,41.75,19.833,41.597,19.989,41.408z M14.077,42.221
		c-0.313,0.095-0.437,0.438-0.313,0.721c0.188,0.221,0.405,0.314,0.686,0.314c0.187-0.159,0.438-0.247,0.467-0.597
		c-0.062-0.032-0.126-0.093-0.094-0.155C14.731,42.221,14.356,42.189,14.077,42.221z M88.359,42.159
		c-0.061-0.253-0.281-0.472-0.562-0.502c-0.125,0.063-0.343,0.063-0.403,0.156c-0.188,0.155-0.219,0.407-0.125,0.596
		c0.125,0.157,0.343,0.346,0.592,0.313C88.11,42.659,88.329,42.44,88.359,42.159z M18.155,35.073
		c0.931,0.158,2.022,0.032,2.767-0.529c0.343-0.252,0.873-0.348,1.059-0.725c-0.061-0.153-0.218-0.094-0.28-0.219
		C20.208,33.286,18.962,33.947,18.155,35.073z M16.505,32.128c0.249-0.158,0.434-0.406,0.311-0.688
		c-0.218-0.348-0.778-0.596-1.057-0.126c-0.283,0.252,0,0.503,0.154,0.72C16.098,32.065,16.286,32.254,16.505,32.128z
		 M19.211,33.229c0.188-0.158,0.437-0.347,0.343-0.66c-0.126-0.22-0.373-0.315-0.591-0.315c-0.185,0.155-0.404,0.315-0.312,0.628
		C18.777,33.037,18.932,33.35,19.211,33.229z M66.241,37.593c0.325,0,0.585-0.23,0.585-0.516s-0.26-0.515-0.585-0.515
		c-0.324,0-0.588,0.229-0.588,0.515S65.917,37.593,66.241,37.593z M45.383,39.868c0,0.17,0.126,0.309,0.279,0.309
		c0.155,0,0.279-0.139,0.279-0.309c0-0.086-0.276-0.55-0.276-0.55S45.383,39.859,45.383,39.868z M62.519,37.954
		c0.325,0,0.587-0.231,0.587-0.52c0-0.284-0.262-0.518-0.587-0.518c-0.324,0-0.586,0.234-0.586,0.518
		C61.933,37.723,62.195,37.954,62.519,37.954z M63.282,38.487c0,0.287,0.262,0.518,0.586,0.518c0.323,0,0.585-0.23,0.585-0.518
		c0-0.283-0.262-0.518-0.585-0.518C63.544,37.97,63.282,38.204,63.282,38.487z M59.766,19.855c0.151,0,0.277-0.139,0.277-0.305
		c0-0.012-0.282-0.552-0.282-0.552s-0.276,0.464-0.276,0.552C59.485,19.716,59.611,19.855,59.766,19.855z M50.234,42.665
		c0,0.168,0.125,0.306,0.279,0.306c0.151,0,0.276-0.138,0.276-0.306c0-0.011-0.283-0.551-0.283-0.551S50.234,42.577,50.234,42.665z
		 M55.029,39.868c0,0.17,0.126,0.309,0.281,0.309c0.153,0,0.279-0.139,0.279-0.309c0-0.009-0.284-0.55-0.284-0.55
		S55.029,39.782,55.029,39.868z M59.726,26c0,0.171,0.124,0.304,0.279,0.304c0.151,0,0.277-0.133,0.277-0.304
		c0-0.011-0.282-0.552-0.282-0.552S59.726,25.914,59.726,26z M65.454,36.391c0.403-0.878,0.373-2.037-0.062-2.917
		c-0.125-0.246-0.093-0.813-0.53-0.719c-0.03,0.594-0.217,1.097-0.373,1.661c0.094,0.784,0.373,1.503,0.716,2.223L65.454,36.391z
		 M59.726,32.268c0,0.17,0.124,0.307,0.279,0.307c0.151,0,0.277-0.137,0.277-0.307c0-0.006-0.282-0.547-0.282-0.547
		S59.726,32.183,59.726,32.268z M58.972,37.231c0,0.17,0.125,0.306,0.279,0.306c0.154,0,0.279-0.136,0.279-0.306
		c0-0.009-0.282-0.549-0.282-0.549S58.972,37.145,58.972,37.231z M63.897,36.64c0.249-0.092,0.313-0.407,0.281-0.72
		c-0.156-0.28-0.592-0.407-0.839-0.157c-0.063,0.157-0.25,0.283-0.158,0.503C63.276,36.548,63.555,36.736,63.897,36.64z
		 M61.275,62.989l-0.18-0.035c-0.395,0.54-0.823,0.912-1.767,0.737c-0.417-0.074-0.548-0.145-0.502-0.398l0.449-2.471
		c0.084-0.462,0.277-0.431,0.718-0.366l0.023-0.13l-2.179-0.401l-0.023,0.131c0.277,0.065,0.529,0.125,0.469,0.47l-0.46,2.537
		c-0.058,0.32-0.248,0.301-0.605,0.274l-0.023,0.131l3.611,0.663L61.275,62.989z M50.722,62.667c-0.42-0.058-0.56-0.076-0.551-0.502
		l0.02-1.044l0.173,0.003l1.279,1.693l1.186,0.021l0,0.003l1.279,0.159l0.015-0.133c-0.213-0.037-0.512-0.09-0.489-0.291
		c0.012-0.085,0.137-0.289,0.361-0.647l1.417,0.178c0.067,0.181,0.22,0.596,0.203,0.74c-0.022,0.174-0.136,0.163-0.529,0.142
		l-0.017,0.132l2.039,0.254l0.019-0.129c-0.304-0.029-0.383-0.221-0.597-0.822l-1.061-2.954l-0.175-0.021l-1.756,2.72
		c-0.228,0.354-0.344,0.517-0.65,0.533c-0.063-0.006-0.132-0.023-0.197-0.096l-1.247-1.547c0.345-0.082,1-0.237,1.014-0.891
		c0.017-0.895-1.325-0.967-1.769-0.973l-2.044-0.038l-0.003,0.13c0.363,0.029,0.558,0.045,0.548,0.504l-0.045,2.354
		c-0.008,0.432-0.136,0.445-0.568,0.478l-0.002,0.132l2.144,0.043L50.722,62.667z M54.867,60.525l0.478,1.365l-1.229-0.152
		L54.867,60.525z M50.221,59.594c0.036-0.165,0.05-0.224,0.4-0.217c0.507,0.009,0.759,0.244,0.751,0.781
		c-0.013,0.692-0.348,0.804-1.177,0.792L50.221,59.594z M44.565,60.601c0.047-0.862,0.694-0.952,1.135-1.014l0.265,2.795
		c0.042,0.446-0.107,0.468-0.565,0.545l0.01,0.133l2.256-0.218l-0.012-0.132c-0.469,0.021-0.622,0.022-0.666-0.428l-0.264-2.796
		c0.437-0.021,1.089-0.055,1.297,0.781l0.182-0.021l-0.111-1.062l-3.794,0.362l0.082,1.069L44.565,60.601z M61.026,64.21
		l2.172,0.459l0.027-0.131c-0.336-0.095-0.582-0.161-0.513-0.497l0.521-2.522c0.074-0.354,0.373-0.299,0.667-0.247l0.027-0.13
		l-2.173-0.455l-0.028,0.129c0.284,0.076,0.573,0.148,0.502,0.491l-0.522,2.521c-0.067,0.327-0.313,0.296-0.652,0.251L61.026,64.21z
		 M42.291,62.137l0.452,0.074c0.437,0.071,0.758,0.13,0.832,0.478c0.017,0.066,0.101,0.591-0.646,0.757
		c-0.787,0.175-1.276-0.331-1.516-0.83l-0.178,0.041l0.283,1.284l0.18-0.041c0.005-0.088,0.015-0.187,0.146-0.217
		c0.191-0.043,0.511,0.069,1.099-0.06c1.14-0.254,1.399-0.973,1.298-1.429c-0.125-0.568-0.662-0.765-0.893-0.806l-0.993-0.176
		c-0.568-0.104-0.713-0.19-0.775-0.47c-0.072-0.338,0.234-0.571,0.557-0.643c0.729-0.166,1.234,0.351,1.424,0.688l0.176-0.036
		l-0.249-1.128l-0.188,0.04c-0.008,0.106-0.021,0.188-0.165,0.224c-0.18,0.037-0.507-0.065-1.005,0.044
		c-1.177,0.263-1.213,1.014-1.143,1.329C41.038,61.501,41.137,61.948,42.291,62.137z M32.732,65.429l0.017,0.132l1.281-0.147
		l-0.017-0.131c-0.215,0.014-0.521,0.032-0.541-0.168c-0.01-0.086,0.064-0.314,0.198-0.715l1.419-0.164
		c0.107,0.158,0.354,0.526,0.37,0.669c0.022,0.175-0.092,0.192-0.48,0.263l0.015,0.134l2.045-0.237l-0.015-0.131
		c-0.302,0.043-0.423-0.124-0.775-0.657l-1.725-2.617l-0.175,0.018l-1.067,3.065C33.136,65.158,33.07,65.347,32.732,65.429z
		 M34.187,62.828l0.785,1.21l-1.23,0.143L34.187,62.828z M37.729,37.832c-0.219,0.063-0.311,0.378-0.219,0.597
		c0.125,0.188,0.374,0.313,0.652,0.251c0.188-0.123,0.436-0.314,0.373-0.597C38.443,37.802,38.007,37.77,37.729,37.832z
		 M36.264,59.647c-0.56-0.096-1.025,0.314-1.555,0.158l-1.025,0.236c-0.098,0.019-0.21,0.014-0.343-0.018
		c-0.498-1.284,0.993-2.07,0.528-3.324c-0.404-0.721-1.214-1.412-2.148-1.284c-1.056-0.128-1.99,0.472-2.489,1.284
		c-0.715,1.565,0.187,3.197,0.467,4.734c-0.064,0.502,0.497,1.063,0,1.473c-0.997-0.69-2.303-1.065-3.515-0.722
		c-0.375,0.188-1.059-0.06-1.244,0.378c1.338,0.721,3.048,0.626,4.54,0.563c0.187-0.061,0.312-0.094,0.468,0.033
		c0.125,0.813-0.156,1.909,0.343,2.633c0.56,0.751,1.495,0.939,2.396,1.035c2.864-0.096,5.414-0.942,8.028-1.601
		c0.406-0.03,0.716-0.251,1.153-0.251c1.4-0.312,2.925-0.563,4.417-0.596c-0.652,0.847-1.025,1.789-1.308,2.82
		c-0.373,0.847,0.656,0.972,0.966,1.442c-0.966,0.281-1.65,0.939-2.551,1.316c-1.992-0.061-3.673,0.69-5.542,0.907
		c-0.028,0.409,0.656,0.283,0.718,0.688c-0.094,0.286-0.373,0.316-0.591,0.475c-0.029,0.187,0,0.219,0.187,0.249
		c0.188-0.219,0.591-0.063,0.78-0.284c0.622,0,1.15-0.186,1.742-0.216c0.529-0.224,1.12-0.251,1.587-0.629
		c0.654-0.186,1.059-0.625,1.713-0.813c0.933,0,1.773-0.314,2.644-0.377v0.188c-0.716,1.16-1.462,2.352-2.21,3.447
		c-0.125,0.22,0.032,0.439,0.218,0.503c0.436,0.124,0.871,0,1.212-0.188c0.656-1.13,1.248-2.195,1.777-3.355
		c0.217-1.065,0.994-1.631,1.773-2.35c0.125-0.063,0.311-0.252,0.434-0.063c-0.622,0.721-1.025,1.409-1.491,2.193
		c-0.25,0.879-0.314,2.006,0.466,2.726c0.373,0.314,0.933,0.22,1.432,0.252c1.212-0.626,2.769,0.375,3.703-0.814
		c0.558-0.096,0.651,0.563,0.963,0.877c0.528,0.158,1.089,0.689,1.619,0.313c-0.032-0.345-0.405-0.659-0.59-0.971
		c-0.375-0.658-0.84-1.19-1.184-1.786c-0.158-0.439-0.437-0.721-0.499-1.161c0.56,0.188,1.059,0.565,1.683,0.658
		c0.528,0.221,1.18,0.188,1.677,0.503c0.407,0.532,1.029,0.847,1.557,1.19c0.776,0.377,1.65,0.44,2.459,0.754
		c0.311,0.031,0.778,0.279,0.997,0c-0.126-0.158-0.283-0.253-0.467-0.347c-0.095-0.407,0.56-0.188,0.778-0.5
		c-0.076-0.153-0.213-0.219-0.361-0.24c-0.447-0.237-1.555-0.322-1.849-0.481c-0.374-0.063-0.716-0.221-1.089-0.344
		c-1.866,0-2.895-1.695-4.388-2.321c0.343-0.312,0.871-0.565,1.09-1.034c0.279-0.438,0.373-1.16,0.094-1.66
		c-0.281-0.973-1.526-0.848-2.241-1.38l0.094-0.093c1.212-0.063,2.271,0.219,3.36,0.437c2.985,0.407,5.755,1.536,8.868,1.601
		c1.711,0,3.86,0.092,4.699-1.569c0.156-0.971,0.341-1.942,0.499-2.915c0.374-1.565,1.399-3.008,1.244-4.732
		c-0.373-0.971-1.153-1.629-2.118-1.942c-0.995-0.219-2.054-0.065-2.707,0.688c-1.119,0.909-0.343,2.414-0.312,3.637
		c0,0.25,0.033,0.438-0.216,0.565c-4.513-0.408-8.713-1.534-13.195-2.009c-1.03-0.177-2.061-0.129-3.041-0.338l-1.252-0.13
		c-3.892,0.127-7.783,0.345-11.424,1.284C37.915,59.301,37.042,59.363,36.264,59.647z M39.346,71.591l-0.436-0.408
		c0.217-0.283,0.684-0.126,1.025-0.316c0.81-0.249,1.745-0.563,2.646-0.374C41.648,71.245,40.435,71.338,39.346,71.591z
		 M58.774,71.09c0.743,0.336,2.239,0.664,3.318,0.786c-0.098,0.425-0.856,0.025-0.769,0.623c-0.964-0.374-2.083-0.563-2.798-1.316
		C58.585,71.153,58.649,71.06,58.774,71.09z M29.576,57.768c0.09-0.564,0.215-1.158,0.747-1.569
		c0.746-0.405,1.773-0.311,2.458,0.095c0.217,0.128,0.375,0.316,0.499,0.596c0.155,0.533-0.096,1.098-0.469,1.412h-0.309
		c0-0.505,0-1.005,0.185-1.412c-0.03-0.377-0.341-0.405-0.59-0.563c-0.529-0.157-0.997,0.096-1.401,0.313
		c-0.312,0.376-0.59,0.847-0.404,1.379c0.217,0.347,0.032,0.816,0.156,1.193l-0.094,0.123
		C29.979,58.929,29.479,58.489,29.576,57.768z M31.038,58.662c0.464,0.345,1.118,0.188,1.681,0.283
		c0.091,0.343,0.091,0.781-0.158,1.065c-0.53-0.125-1.213-0.063-1.493-0.562C31.131,59.227,30.974,58.915,31.038,58.662z
		 M30.944,57.609c0.094-0.251,0-0.625,0.343-0.69c0.215-0.061,0.558-0.061,0.59,0.19c-0.032,0.375-0.062,0.752-0.156,1.097
		C31.287,58.235,31.068,57.986,30.944,57.609z M45.538,67.672c-0.155-1.098,0.281-2.036,0.997-2.822
		c0.435-0.091,0.933-0.186,1.338,0.063c-0.809,0.219-1.837,0.407-2.026,1.443c0.034,0.406-0.091,0.626,0.096,0.973
		c0.341,0.593,1.122,0.344,1.557,0.814c0,0.155-0.124,0.344-0.281,0.374C46.688,68.205,46.036,68.077,45.538,67.672z M44.417,69.833
		c0.748-0.313,1.526-0.97,2.367-0.69C46.19,69.614,45.227,69.803,44.417,69.833z M47.375,70.147
		c-0.438,1.002-0.935,1.975-1.528,2.945c-0.06,0.158-0.309,0.188-0.496,0.221c0-0.438,0.436-0.784,0.624-1.16
		c0.652-0.846,0.839-1.755,1.585-2.571C47.747,69.771,47.375,69.898,47.375,70.147z M48.15,68.331v0.123H48.09v-0.123v-0.033h0.124
		c-0.03,0-0.092,0-0.124,0.033H48.15z M47.873,67.481c-0.529-0.061-1.029-0.217-1.495-0.373c-0.313-0.315,0-0.66,0-1.004
		c0.436-0.689,1.679-1.036,2.273-0.408C48.555,66.386,48.308,66.981,47.873,67.481z M48.555,67.481
		c0.096-0.404,0.283-0.938,0.5-1.313C49.022,66.574,48.838,67.14,48.555,67.481z M48.898,64.943
		c-0.405-0.094-0.624-0.563-1.058-0.563c0.373-0.126,0.746-0.091,1.182-0.03C49.179,64.568,48.93,64.759,48.898,64.943z
		 M49.273,65.885h-0.032v-0.346h0.032V65.885z M49.303,67.328c-0.03-0.128,0.063-0.282,0.094-0.439
		c0.155-0.157,0.311,0.127,0.373,0.22C49.678,67.265,49.49,67.358,49.303,67.328z M49.771,65.385
		c0.157-0.441,0.187-0.816,0.468-1.161c0.309,0,0.59,0,0.837,0.126c0.063,0.626,0.842,1.474,0,2.006
		c-0.279,0.125-0.683,0.406-0.993,0.125C49.678,66.137,49.613,65.823,49.771,65.385z M52.042,64.508
		c-0.062-0.284,0.281-0.065,0.405-0.188l0.965,0.061C52.913,64.319,52.291,65.478,52.042,64.508z M53.598,64.912
		c-0.375,0.126-0.654,0.565-1.027,0.661C52.758,65.227,53.223,64.88,53.598,64.912z M52.291,66.855v0.095h-0.032v-0.095H52.291z
		 M52.353,68.771c-0.031,0.063,0.03,0.153-0.063,0.218l-0.714-0.564C51.917,68.362,52.168,68.517,52.353,68.771z M51.514,67.796
		c0.063-0.062,0.217-0.062,0.279,0H51.514z M51.075,67.328c0.125-0.188,0.282-0.473,0.501-0.473c0,0.033,0.03,0.063,0.062,0.095
		C51.45,67.108,51.293,67.265,51.075,67.328z M50.362,67.265h-0.124l0.187-0.188C50.517,67.14,50.393,67.2,50.362,67.265z
		 M50.453,68.454c0.407-0.438,0.78,0.251,0.935,0.596c0.469,0.69,1.681,1.316,1.215,2.258c-0.593,0.533-1.528,0.03-2.178,0.438
		c-0.343-0.03-0.935,0.063-1.122-0.281C49.646,70.461,49.957,69.331,50.453,68.454z M49.584,69.05l0.155-0.249
		c-0.249,0.751-0.624,1.535-1.027,2.256C48.525,70.304,49.303,69.707,49.584,69.05z M50.954,72.78
		c-0.592,0.034-1.494,0.375-2.056-0.125c0.032-0.252-0.247-0.377-0.217-0.626c0.498-0.188,0.931,0.405,1.4-0.035
		c0.714,0.035,1.462-0.093,2.177,0.065c0.344,0.094,0.874-0.564,0.935,0.094C52.944,73.188,51.7,72.467,50.954,72.78z
		 M52.758,68.266v-0.094h0.062v0.094H52.758z M52.944,70.239c0.03,0.315,0.343,0.44,0.155,0.725
		C53.037,70.838,52.85,70.555,52.944,70.239z M53.817,72.122l-0.156,0.063c-0.155-0.125-0.094-0.47-0.063-0.657
		C53.785,71.683,53.941,71.901,53.817,72.122z M55.372,72.876c-0.032,0.091-0.188,0.091-0.249,0.031
		c-0.933-1.192-1.369-2.446-1.962-3.765l0.126-0.03C54.034,70.336,54.625,71.683,55.372,72.876z M56.523,69.992
		c-0.063,0.029-0.063,0.095-0.063,0.125c-0.903,0.03-1.494-0.503-2.177-0.975l-0.034-0.154
		C55.093,69.05,55.775,69.582,56.523,69.992z M55.715,65.823c0.373,0.095,0.403,0.499,0.435,0.813
		c-0.032,0.692-0.405,1.285-1.057,1.536c-0.343,0.19-0.873,0.252-1.216,0.126c0.749-0.032,1.556-0.313,1.868-1.063L55.715,65.823z
		 M55.029,65.696c0.155,0.44,0.437,0.847,0.281,1.381c-0.311,0.595-0.933,0.595-1.493,0.719c-0.281,0.031-0.5-0.062-0.718-0.22
		c0.033-0.123-0.03-0.218-0.125-0.312c0.094-0.409-0.716-0.816-0.155-1.16C53.317,65.636,54.499,64.568,55.029,65.696z
		 M69.064,55.979c0.498-0.25,1.308-0.22,1.806,0.063c0.403,0.098,0.871,0.283,1.025,0.658c0.467,0.439,0.343,1.225,0.249,1.789
		c-0.279,0.563-0.716,0.97-1.338,1.063c0.03-0.75,0.716-1.286,0.467-2.13c-0.403-0.599-1.214-0.784-1.96-0.626
		c-0.281,0.188-0.155,0.5-0.249,0.783l-0.124,1.034c-0.624,0-0.656-0.562-0.84-1.004C68.13,56.951,68.411,56.293,69.064,55.979z
		 M69.623,58.802c0.343-0.346-0.091-2.318,0.874-1.034c0,0.249,0.03,0.626-0.219,0.814C70.121,58.71,69.873,58.959,69.623,58.802z
		 M69.966,59.587c0.03,0.5-0.434,0.375-0.683,0.563h-0.748c-0.156-0.253-0.092-0.628-0.092-0.88
		C68.94,59.363,69.499,59.363,69.966,59.587z M45.975,58.582c2.799-0.03,5.663-0.188,8.337,0.281
		c0.871,0.033,1.621,0.252,2.458,0.315c1.745,0.218,3.362,0.688,5.137,0.813c0.279,0.095,0.622,0.095,0.933,0.158
		c2.799,0.438,5.942,1.22,8.618,0c0,1.128-0.464,2.161-0.622,3.257c-0.247,0.314-0.03,0.816-0.339,1.101
		c0,0.561-0.467,0.842-0.874,1.065c-3.702,0.813-7.343-0.442-10.921-1.065c-5.011-1.101-10.861-1.412-15.964-0.254
		c-2.397,0.44-4.73,1.003-7.033,1.664c-1.431,0.187-2.985,0.404-4.357-0.033c-1.12-0.535-0.654-1.975-0.995-2.978
		c0.062-0.781-0.219-1.41-0.249-2.164c-0.094-0.248-0.156-0.563-0.125-0.814c0.467,0.063,0.935,0.41,1.431,0.534
		c2.614,0.501,4.949-0.346,7.376-0.784C41.12,59.179,43.516,58.771,45.975,58.582z M36.857,61.814l0.41,1.729
		c0.135,0.56,0.336,0.702,0.649,0.836c0.471,0.199,1.059,0.093,1.328,0.025c0.37-0.089,0.886-0.317,1.128-0.672
		c0.205-0.291,0.183-0.776,0.109-1.082l-0.391-1.648c-0.081-0.345,0.048-0.435,0.378-0.56l-0.03-0.129l-1.358,0.327l0.03,0.13
		c0.537-0.107,0.652,0.051,0.726,0.366l0.375,1.581c0.076,0.331,0.252,1.126-0.832,1.386c-0.891,0.215-1.061-0.5-1.129-0.796
		l-0.41-1.729c-0.106-0.455,0.084-0.506,0.488-0.622l-0.031-0.128l-2.088,0.5l0.032,0.131
		C36.592,61.407,36.755,61.378,36.857,61.814z M63.333,64.653l-0.015,0.133l1.283,0.133l0.013-0.133
		c-0.213-0.032-0.516-0.081-0.494-0.278c0.007-0.087,0.131-0.292,0.348-0.657l1.42,0.147c0.07,0.178,0.232,0.592,0.219,0.734
		c-0.017,0.177-0.131,0.17-0.528,0.155l-0.014,0.134l2.047,0.21l0.014-0.131c-0.306-0.021-0.387-0.213-0.614-0.809l-1.125-2.936
		l-0.177-0.017l-1.696,2.759C63.783,64.476,63.676,64.647,63.333,64.653z M65.308,62.427l0.506,1.354l-1.23-0.128L65.308,62.427z
		 M43.592,35.353c0.371,0,0.314-0.261,0.359-0.388c0.017,0.193,0.198-0.096,0.198,0.243c0,0.351-0.363,0.196-0.363,0.499
		c0,0.409,0.573-0.014,0.573,0.438c0,0.545-0.069,0.532-0.069,0.742c0,0.141,0.599-0.199,0.563-0.26
		c0.144,0.05,0.137,0.474,0.402,0.464c0.175-0.008,0.211-0.433,0.346-0.47c-0.081,0.02,0.542,0.404,0.542,0.209
		c0-0.53-0.217-0.304-0.217-0.667c0-0.336,0.734-0.272,0.617-0.444c-0.096-0.144-0.162-0.056-0.241-0.307
		c0.014,0.046-0.576-0.842,0.123-0.386c0.736,0.483,0.82-1.117,0.78-1.201c-0.019-0.041-0.352,0.086-0.477,0.157
		c0.056-0.204,0.374-0.554,0.528-0.69c-0.031-0.228-0.321-0.021-0.627,0.139c1.017-1.455,0.365-0.86-0.203-0.755
		c0.908-0.978,0.669-0.96,0-0.657c0.524-0.417,0.635-0.912,0.555-1.056c-0.491,0.655-0.945,0.555-0.945,1.161
		c0,0.401-0.145,1.059-0.35,1.284c-0.267,0.287-0.064-1.075-0.76-1.075c-0.222,0-0.748-0.02-0.908,0.252
		c0.141,0,0.354,0.365,0.354,0.506c0,0.144,0.133,0.539-0.106,0.539s-0.514-0.498-0.514-0.74c0-0.24-0.017-0.183-0.017-0.528
		c0-0.577-0.938-1.387-1.319-1.387c0,0.401,0.522,0.497,0.522,1.011c-0.22,0-0.538-0.418-0.538-0.161s0.333,0.304,0.333,0.532
		c0,0.222-0.38-0.083-0.38,0.16c0,0.209,0.207,0.175,0.259,0.381c-0.156-0.045-0.296-0.024-0.323,0.055
		c-0.023,0.068,0.047,0.158,0.163,0.224c-0.054,0.052-0.099,0.17-0.099,0.508C42.354,34.823,43.067,35.353,43.592,35.353z
		 M42.978,37.378l6.861,4.099c0.153,0.175,0.375,0.282,0.627,0.282c0.215,0,0.41-0.083,0.558-0.219l6.968-4.162
		c0.815-0.375,1.403-1.592,1.403-2.982l0.013-14.407h-0.003v-0.01H41.564v0.01h-0.001l0.015,14.407
		C41.578,35.786,42.166,37.003,42.978,37.378z M47.495,30.034h-1.543V26.53h1.543V30.034z M46.456,24.965l0.289,0.031l0.171-0.307
		l0.173,0.3l0.291-0.024l-0.136,0.249l0.22,0.231l-0.279,0.053v0.313l-0.269-0.199l-0.262,0.199v-0.313l-0.281-0.053l0.22-0.231
		L46.456,24.965z M53.479,20.469h5.426v9.564h-5.426V20.469z M53.479,30.523h5.426v4.057c-0.094,1.032-0.444,1.891-1.157,2.377
		l-4.27,2.55V30.523z M47.98,20.469h5.011v9.564H47.98V20.469z M47.98,30.523h5.011v9.274l-1.972,1.178h-0.033
		c-0.143,0.111-0.321,0.185-0.52,0.185c-0.202,0-0.383-0.075-0.526-0.19l-1.96-1.172V30.523z M45.951,20.469h1.543v3.69h-1.543
		V20.469z M44.492,21.372l0.288,0.03l0.173-0.305l0.171,0.299l0.292-0.025l-0.138,0.252l0.218,0.228l-0.279,0.054v0.313
		l-0.266-0.199l-0.266,0.199v-0.313l-0.279-0.054l0.219-0.228L44.492,21.372z M44.419,24.614c0.517,0,0.373,0.5,0.457,0.5
		s-0.007-0.5,0.339-0.5c0.514,0,1.157,1.318,0.575,1.318c-0.25,0-0.05-0.186-0.054-0.222c-0.013-0.094-0.138-0.118-0.188-0.118
		c-0.168,0-0.236,0.274-0.373,0.281c-0.104,0.006-0.178,0.017-0.178-0.109c0-0.094,0.211-0.167,0.294-0.248
		c-1.157,0-1.18,0.532-1.36,0.532c-0.304,0,0.252-0.56,0.414-0.723c-0.234-0.037-0.37-0.325-0.625-0.471
		c0.119-0.175,0.188-0.1,0.34,0.023C44.059,24.755,44.149,24.614,44.419,24.614z M44.408,29.004l0.219-0.229l-0.135-0.25
		l0.288,0.031l0.173-0.304l0.171,0.301l0.292-0.028l-0.138,0.25l0.218,0.229l-0.279,0.056v0.311l-0.266-0.199l-0.266,0.199v-0.311
		L44.408,29.004z M42.069,20.469h1.872v3.69h-1.872V20.469z M42.294,25.445l0.219-0.231l-0.137-0.249l0.288,0.031l0.175-0.307
		l0.171,0.3l0.289-0.024l-0.134,0.249l0.218,0.231l-0.279,0.053v0.313l-0.266-0.199l-0.266,0.199v-0.313L42.294,25.445z
		 M42.069,26.53h1.872v3.503h-1.872V26.53z M42.069,30.523h5.426v8.984l-4.27-2.55c-0.712-0.486-1.065-1.345-1.156-2.377V30.523z
		 M51.404,37.857c0.475-0.238,0.915-0.566,1.184-1.014c0.029-0.504,0.175-1.159-0.118-1.577c-0.356-0.447-0.474-1.163-0.622-1.757
		c-0.148-0.834,0.888-0.119,0.945-0.747c-0.296-0.325-0.736-0.921-1.271-0.503c-0.294,0.235-0.444,0.623-0.354,1.038
		c0.119,0.805,0.472,1.55,0.591,2.295c-0.178-0.088-0.297-0.269-0.442-0.388c-0.622-0.802-1.775-0.565-2.484-1.31
		c-0.857,0.063,0.562,0.953-0.444,1.131c-0.03,0.208,0.209,0.33,0.209,0.538c-0.091,0.089-0.209,0.089-0.299,0.146
		c0,0.538,0.326,1.016,0.504,1.491C49.216,38.303,50.517,37.769,51.404,37.857z M51.998,27.556l-0.173,0.015l-0.101-0.178
		l-0.104,0.181l-0.172-0.018l0.083,0.149l-0.133,0.135l0.168,0.033v0.186l0.158-0.119l0.158,0.119v-0.186l0.165-0.033l-0.129-0.135
		L51.998,27.556z M52.061,25.849l-0.31,0.031l-0.178-0.316l-0.185,0.32l-0.301-0.034l0.143,0.268l-0.231,0.243l0.295,0.054v0.332
		l0.279-0.21l0.279,0.21v-0.332l0.292-0.054l-0.229-0.243L52.061,25.849z M41.719,37.537c0.156,0,0.282-0.136,0.282-0.306
		c0-0.086-0.276-0.549-0.276-0.549s-0.284,0.54-0.284,0.549C41.442,37.401,41.566,37.537,41.719,37.537z M40.969,19.855
		c0.154,0,0.279-0.139,0.279-0.305c0-0.012-0.284-0.552-0.284-0.552s-0.276,0.464-0.276,0.552
		C40.688,19.716,40.814,19.855,40.969,19.855z M36.562,37.148c-0.326,0-0.588,0.23-0.588,0.518c0,0.284,0.262,0.516,0.588,0.516
		c0.323,0,0.585-0.231,0.585-0.516C37.147,37.378,36.885,37.148,36.562,37.148z M41.249,32.268c0-0.085-0.276-0.547-0.276-0.547
		s-0.284,0.541-0.284,0.547c0,0.17,0.126,0.307,0.281,0.307C41.124,32.575,41.249,32.438,41.249,32.268z M41.249,26
		c0-0.086-0.276-0.552-0.276-0.552S40.688,25.989,40.688,26c0,0.171,0.126,0.304,0.281,0.304C41.124,26.304,41.249,26.171,41.249,26
		z M57.278,23.984l0.686-2.597l-1.735,0.675l-1.762-0.675l0.656,2.597l-1.345-0.222l0.376,1.509l-0.376,1.573l1.405-0.395
		l-0.716,2.799l1.762-0.676l1.735,0.676l-0.531-2.799l1.217,0.331l-0.467-1.509l0.467-1.573L57.278,23.984z M57.069,26.068h-1.417
		c-0.624,0-0.62-0.42-0.62-1.049c0-0.911,0.871-0.126,1.187-0.975c0.434,1.007,1.281-0.06,1.281,1.007
		C57.5,25.524,57.464,26.068,57.069,26.068z M56.293,24.729c-0.407,0-0.953-0.202-0.953,0.375c0,0.409,0.546,0.139,0.953,0.139
		s0.951,0.271,0.951-0.139C57.244,24.527,56.7,24.729,56.293,24.729z M45.667,19.855c0.153,0,0.277-0.139,0.277-0.305
		c0-0.012-0.283-0.552-0.283-0.552s-0.274,0.464-0.274,0.552C45.388,19.716,45.513,19.855,45.667,19.855z M55.065,19.855
		c0.155,0,0.279-0.139,0.279-0.305c0-0.012-0.286-0.552-0.286-0.552s-0.272,0.464-0.272,0.552
		C54.787,19.716,54.911,19.855,55.065,19.855z M50.366,19.855c0.155,0,0.279-0.139,0.279-0.305c0-0.012-0.283-0.552-0.283-0.552
		s-0.275,0.464-0.275,0.552C50.087,19.716,50.213,19.855,50.366,19.855z M48.971,26.638v0.33l0.279-0.21l0.279,0.21v-0.33
		l0.296-0.056l-0.232-0.242l0.145-0.263l-0.31,0.026l-0.178-0.315l-0.185,0.319l-0.3-0.03l0.144,0.263l-0.234,0.242L48.971,26.638z
		 M50.722,28.039l-0.528,0.049l-0.306-0.545l-0.315,0.552l-0.519-0.056l0.245,0.452l-0.396,0.415l0.508,0.096v0.562l0.478-0.356
		l0.477,0.356v-0.562l0.504-0.096l-0.394-0.415L50.722,28.039z M50.959,24.577l0.146-0.264l-0.309,0.028l-0.178-0.318l-0.185,0.322
		l-0.301-0.032l0.143,0.264l-0.232,0.242l0.296,0.056v0.33l0.279-0.209l0.279,0.209v-0.33l0.296-0.056L50.959,24.577z
		 M57.978,34.788c0-0.447,0.472-0.625,0.443-1.1c-0.178-0.479-0.74-0.479-0.887-0.924c0.178-0.12,0.444-0.091,0.62,0
		c0.059,0.09,0.207,0.119,0.394,0.055l0.178-0.506c0.015-0.035-0.205-0.236-0.334-0.204c-0.502,0.117-1.035,0.178-1.33,0.655
		c0,0.327,0.235,0.625,0.473,0.772c0.178-0.059,0.207,0.12,0.326,0.21c0.029,0.15-0.061,0.269-0.207,0.269
		c-0.356-0.359-0.977,0.12-1.243-0.327c0.118-0.447,0.353-0.956-0.03-1.373c0.03-0.09,0.178-0.178,0.091-0.268
		c-0.148-0.415-0.592-0.088-0.861-0.088c-0.44-0.061-0.797,0.178-1.063,0.533c0.029,0.15,0.088,0.299,0.235,0.452
		c0.12-0.032,0.178,0,0.208,0.117l-0.297,0.179c0.089,0.09,0.089,0.206,0.119,0.326c-0.208,0.089-0.414-0.208-0.502-0.357
		c0-0.239,0.03-0.655-0.297-0.716c-0.058,0-0.256,0.09-0.256,0.09c-0.07,0.089-0.121,0.273-0.121,0.491
		c0,0.211,0.117,0.535,0.117,0.535s0.911,0.673,1.116,1.088c-0.265,0.538-0.265,1.283-0.886,1.579
		c-0.176,0.117-0.176,0.3-0.176,0.478l0.147,0.122c0.385-0.211,1.123-0.269,1.066-0.927c0.148-0.268,0.292-0.564,0.558-0.773
		c0.299-0.058,0.563,0.093,0.681,0.328c-0.089,0.445-0.382,0.745-0.799,0.891c-0.057,0.063-0.03,0.152-0.03,0.24
		c0.121,0.209,0.447,0.12,0.621,0.09c0.505-0.33,0.709-0.921,1.153-1.101c0.061,0.296-0.591,0.388-0.176,0.683
		c0.266-0.058,0.622,0.032,0.798-0.326C57.623,35.472,58.539,35.234,57.978,34.788z M49.397,22.934v0.376
		c0,0.1,0.077,0.178,0.175,0.178h1.358c0.099,0,0.178-0.078,0.178-0.178v-0.409c0.163-0.139,0.275-0.362,0.275-0.654
		c0-1.279-0.718-0.08-1.114-1.168c-0.291,0.92-1.155,0.148-1.155,1.136C49.115,22.594,49.212,22.809,49.397,22.934z M50.198,21.82
		c0.373,0,0.952-0.139,0.952,0.488c0,0.444-0.501,0.187-0.875,0.187s-0.874,0.257-0.874-0.187
		C49.401,21.681,49.825,21.82,50.198,21.82z"/>
	<polygon points="303.91,47.341 106.854,47.341 106.854,45.854 303.91,45.854 303.91,47.341 	"/>
	<g>
		<path d="M107.589,68.364V68.04h0.398c0.348,0,0.617-0.057,0.802-0.166s0.323-0.259,0.412-0.447
			c0.052-0.124,0.079-0.495,0.079-1.115v-7.9c0-0.612-0.032-0.996-0.097-1.148c-0.064-0.155-0.195-0.289-0.394-0.404
			s-0.464-0.174-0.802-0.174h-0.398v-0.326h5.375c1.434,0,2.588,0.194,3.463,0.585c1.067,0.478,1.877,1.2,2.431,2.167
			c0.551,0.969,0.827,2.065,0.827,3.288c0,0.843-0.137,1.621-0.408,2.333c-0.272,0.711-0.623,1.299-1.053,1.761
			c-0.432,0.464-0.93,0.836-1.493,1.116c-0.563,0.28-1.252,0.498-2.067,0.65c-0.359,0.071-0.926,0.105-1.699,0.105H107.589z
			 M112.168,57.041v9.368c0,0.495,0.023,0.799,0.07,0.911s0.127,0.199,0.239,0.256c0.159,0.09,0.39,0.135,0.691,0.135
			c0.986,0,1.738-0.337,2.257-1.011c0.709-0.908,1.063-2.318,1.063-4.232c0-1.539-0.242-2.771-0.726-3.693
			c-0.384-0.719-0.876-1.209-1.479-1.468C113.858,57.123,113.153,57.033,112.168,57.041z"/>
		<path d="M128.07,63.929h-4.543c0.055,1.099,0.347,1.967,0.878,2.604c0.406,0.491,0.897,0.734,1.468,0.734
			c0.356,0,0.676-0.099,0.965-0.296c0.29-0.198,0.6-0.556,0.932-1.067l0.299,0.194c-0.447,0.915-0.945,1.564-1.486,1.944
			c-0.544,0.381-1.173,0.571-1.886,0.571c-1.228,0-2.158-0.473-2.791-1.418c-0.507-0.762-0.761-1.705-0.761-2.833
			c0-1.38,0.375-2.481,1.122-3.298c0.746-0.818,1.62-1.227,2.625-1.227c0.837,0,1.565,0.344,2.183,1.03
			C127.691,61.558,128.022,62.577,128.07,63.929z M125.89,63.336c0-0.95-0.05-1.603-0.153-1.958
			c-0.104-0.354-0.263-0.621-0.482-0.804c-0.123-0.108-0.289-0.159-0.497-0.159c-0.305,0-0.558,0.148-0.75,0.451
			c-0.348,0.524-0.523,1.246-0.523,2.159v0.311H125.89z"/>
		<path d="M132.313,67.524v3.08c0,0.426,0.034,0.717,0.1,0.868c0.068,0.155,0.175,0.267,0.316,0.336
			c0.141,0.073,0.418,0.108,0.83,0.108v0.328h-4.717v-0.328c0.365-0.013,0.637-0.116,0.814-0.309
			c0.117-0.137,0.176-0.488,0.176-1.055v-8.741c0-0.583-0.068-0.959-0.204-1.12c-0.135-0.162-0.398-0.255-0.787-0.277v-0.328h3.471
			v1.089c0.289-0.425,0.583-0.733,0.885-0.921c0.431-0.278,0.899-0.416,1.407-0.416c0.609,0,1.161,0.191,1.661,0.576
			c0.499,0.383,0.877,0.911,1.138,1.588c0.26,0.678,0.388,1.402,0.388,2.184c0,0.838-0.132,1.604-0.401,2.297
			c-0.268,0.694-0.658,1.224-1.168,1.585c-0.511,0.363-1.079,0.546-1.704,0.546c-0.456,0-0.881-0.102-1.276-0.301
			C132.948,68.158,132.637,67.896,132.313,67.524z M132.313,66.631c0.508,0.719,1.05,1.08,1.628,1.08
			c0.319,0,0.582-0.17,0.789-0.506c0.306-0.495,0.46-1.44,0.46-2.833c0-1.429-0.168-2.404-0.504-2.932
			c-0.225-0.348-0.526-0.522-0.904-0.522c-0.594,0-1.085,0.433-1.468,1.293V66.631z"/>
		<path d="M143.763,67.145c-1.011,0.891-1.917,1.336-2.72,1.336c-0.473,0-0.863-0.153-1.177-0.465
			c-0.313-0.309-0.471-0.698-0.471-1.163c0-0.632,0.273-1.2,0.816-1.707c0.542-0.504,1.727-1.175,3.552-2.014v-0.831
			c0-0.626-0.035-1.021-0.105-1.183c-0.067-0.162-0.194-0.304-0.383-0.426c-0.19-0.119-0.401-0.181-0.638-0.181
			c-0.383,0-0.699,0.085-0.949,0.257c-0.152,0.106-0.228,0.229-0.228,0.371c0,0.125,0.082,0.278,0.246,0.461
			c0.223,0.253,0.337,0.498,0.337,0.735c0,0.288-0.106,0.536-0.324,0.738c-0.216,0.204-0.497,0.308-0.845,0.308
			c-0.372,0-0.682-0.113-0.935-0.34c-0.25-0.223-0.377-0.484-0.377-0.785c0-0.426,0.169-0.833,0.504-1.219
			c0.338-0.387,0.807-0.683,1.409-0.89c0.602-0.206,1.227-0.31,1.877-0.31c0.786,0,1.407,0.167,1.865,0.5
			c0.456,0.334,0.752,0.696,0.891,1.084c0.081,0.249,0.123,0.818,0.123,1.709v3.215c0,0.378,0.015,0.617,0.044,0.713
			c0.029,0.097,0.075,0.168,0.132,0.216c0.061,0.048,0.128,0.072,0.205,0.072c0.152,0,0.309-0.109,0.468-0.328l0.266,0.213
			c-0.296,0.437-0.601,0.754-0.917,0.951c-0.316,0.198-0.675,0.297-1.076,0.297c-0.474,0-0.842-0.111-1.108-0.333
			C143.983,67.929,143.819,67.591,143.763,67.145z M143.763,66.497v-2.772c-0.716,0.421-1.248,0.868-1.596,1.347
			c-0.229,0.317-0.345,0.642-0.345,0.965c0,0.272,0.099,0.511,0.293,0.719c0.146,0.158,0.353,0.239,0.619,0.239
			C143.031,66.994,143.373,66.828,143.763,66.497z"/>
		<path d="M151.697,60.087v1.877c0.548-0.856,1.029-1.423,1.442-1.704c0.413-0.281,0.813-0.421,1.196-0.421
			c0.331,0,0.595,0.102,0.792,0.306c0.197,0.202,0.297,0.492,0.297,0.863c0,0.395-0.096,0.702-0.288,0.921
			c-0.191,0.219-0.423,0.328-0.696,0.328c-0.312,0-0.582-0.102-0.813-0.303c-0.232-0.2-0.366-0.313-0.407-0.336
			c-0.06-0.036-0.128-0.053-0.204-0.053c-0.171,0-0.333,0.065-0.488,0.195c-0.243,0.199-0.424,0.485-0.548,0.859
			c-0.188,0.571-0.283,1.203-0.283,1.894v1.902l0.007,0.497c0,0.338,0.021,0.552,0.064,0.646c0.07,0.159,0.175,0.276,0.312,0.35
			c0.14,0.074,0.374,0.12,0.707,0.138v0.317h-4.473v-0.317c0.36-0.03,0.604-0.129,0.731-0.298c0.126-0.167,0.19-0.61,0.19-1.333
			V61.84c0-0.473-0.024-0.773-0.073-0.902c-0.056-0.166-0.145-0.289-0.255-0.363c-0.112-0.077-0.309-0.132-0.593-0.159v-0.328
			H151.697z"/>
		<path d="M159.595,57.058v3.029h1.967v0.877h-1.967v5.107c0,0.48,0.023,0.787,0.067,0.928c0.044,0.138,0.12,0.25,0.235,0.335
			c0.111,0.087,0.214,0.128,0.309,0.128c0.383,0,0.746-0.292,1.09-0.875l0.266,0.192c-0.479,1.136-1.255,1.701-2.33,1.701
			c-0.524,0-0.968-0.146-1.331-0.438c-0.363-0.294-0.596-0.619-0.696-0.979c-0.059-0.2-0.088-0.743-0.088-1.629v-4.471h-1.082
			v-0.311c0.745-0.524,1.379-1.078,1.899-1.656c0.524-0.578,0.978-1.226,1.368-1.939H159.595z"/>
		<path d="M165.784,60.087v1.089c0.454-0.497,0.875-0.843,1.263-1.041c0.386-0.199,0.812-0.296,1.271-0.296
			c0.53,0,0.976,0.123,1.336,0.372c0.36,0.246,0.638,0.625,0.834,1.132c0.47-0.53,0.925-0.913,1.357-1.15
			c0.435-0.235,0.888-0.354,1.36-0.354c0.573,0,1.029,0.132,1.368,0.394c0.339,0.263,0.575,0.596,0.708,1
			c0.135,0.405,0.2,1.049,0.2,1.935v3.393c0,0.637,0.057,1.031,0.174,1.187c0.113,0.153,0.354,0.254,0.72,0.301v0.317h-4.278v-0.317
			c0.336-0.03,0.586-0.159,0.745-0.391c0.106-0.159,0.159-0.525,0.159-1.097V63c0-0.739-0.03-1.207-0.088-1.409
			c-0.06-0.2-0.153-0.35-0.278-0.446c-0.127-0.096-0.276-0.146-0.446-0.146c-0.256,0-0.511,0.093-0.772,0.278
			c-0.26,0.188-0.522,0.465-0.787,0.838v4.445c0,0.596,0.05,0.973,0.15,1.124c0.136,0.22,0.394,0.341,0.778,0.363v0.317h-4.284
			v-0.317c0.228-0.012,0.41-0.068,0.544-0.173c0.132-0.102,0.221-0.227,0.266-0.371c0.044-0.145,0.065-0.459,0.065-0.943V63
			c0-0.751-0.028-1.219-0.088-1.409c-0.06-0.188-0.158-0.336-0.297-0.442c-0.14-0.106-0.288-0.159-0.446-0.159
			c-0.235,0-0.453,0.063-0.647,0.187c-0.278,0.183-0.573,0.496-0.886,0.938v4.445c0,0.585,0.058,0.97,0.173,1.154
			c0.115,0.188,0.355,0.299,0.721,0.333v0.317h-4.267v-0.317c0.347-0.034,0.596-0.147,0.743-0.336
			c0.101-0.13,0.152-0.515,0.152-1.151v-4.677c0-0.625-0.06-1.016-0.175-1.167c-0.115-0.153-0.354-0.254-0.721-0.301v-0.328H165.784
			z"/>
		<path d="M184.47,63.929h-4.544c0.053,1.099,0.345,1.967,0.877,2.604c0.407,0.491,0.896,0.734,1.47,0.734
			c0.354,0,0.678-0.099,0.966-0.296c0.289-0.198,0.6-0.556,0.929-1.067l0.303,0.194c-0.45,0.915-0.945,1.564-1.489,1.944
			c-0.541,0.381-1.17,0.571-1.886,0.571c-1.229,0-2.157-0.473-2.789-1.418c-0.508-0.762-0.762-1.705-0.762-2.833
			c0-1.38,0.372-2.481,1.118-3.298c0.747-0.818,1.625-1.227,2.627-1.227c0.84,0,1.566,0.344,2.184,1.03
			C184.09,61.558,184.423,62.577,184.47,63.929z M182.29,63.336c0-0.95-0.052-1.603-0.154-1.958
			c-0.104-0.354-0.265-0.621-0.483-0.804c-0.123-0.108-0.289-0.159-0.494-0.159c-0.309,0-0.558,0.148-0.754,0.451
			c-0.35,0.524-0.522,1.246-0.522,2.159v0.311H182.29z"/>
		<path d="M188.887,60.087v1.069c0.425-0.46,0.834-0.795,1.223-1.005c0.39-0.208,0.808-0.313,1.259-0.313
			c0.536,0,0.981,0.148,1.336,0.448c0.354,0.296,0.59,0.667,0.708,1.109c0.095,0.337,0.142,0.983,0.142,1.939v3.224
			c0,0.637,0.057,1.033,0.173,1.189c0.116,0.158,0.356,0.256,0.721,0.298v0.317h-4.188v-0.317c0.314-0.042,0.538-0.172,0.673-0.391
			c0.096-0.147,0.144-0.512,0.144-1.097v-3.685c0-0.678-0.026-1.106-0.081-1.284c-0.053-0.176-0.143-0.314-0.269-0.412
			c-0.128-0.096-0.27-0.144-0.421-0.144c-0.508,0-0.98,0.361-1.418,1.088v4.437c0,0.62,0.058,1.012,0.173,1.176
			c0.117,0.168,0.328,0.27,0.643,0.312v0.317h-4.187v-0.317c0.345-0.034,0.594-0.147,0.741-0.336
			c0.103-0.13,0.152-0.515,0.152-1.151v-4.677c0-0.625-0.06-1.016-0.173-1.167c-0.116-0.153-0.356-0.254-0.721-0.301v-0.328H188.887
			z"/>
		<path d="M198.875,57.058v3.029h1.966v0.877h-1.966v5.107c0,0.48,0.023,0.787,0.068,0.928c0.042,0.138,0.121,0.25,0.233,0.335
			c0.111,0.087,0.216,0.128,0.311,0.128c0.383,0,0.746-0.292,1.09-0.875l0.264,0.192c-0.477,1.136-1.254,1.701-2.329,1.701
			c-0.524,0-0.969-0.146-1.332-0.438c-0.361-0.294-0.594-0.619-0.694-0.979c-0.06-0.2-0.088-0.743-0.088-1.629v-4.471h-1.081v-0.311
			c0.743-0.524,1.377-1.078,1.898-1.656c0.524-0.578,0.978-1.226,1.368-1.939H198.875z"/>
		<path d="M210.068,59.839c0.722,0,1.391,0.186,2.011,0.556c0.62,0.374,1.091,0.901,1.411,1.586
			c0.322,0.687,0.483,1.436,0.483,2.249c0,1.175-0.298,2.158-0.895,2.95c-0.72,0.956-1.715,1.435-2.985,1.435
			c-1.243,0-2.204-0.438-2.875-1.312c-0.675-0.873-1.011-1.887-1.011-3.037c0-1.187,0.345-2.222,1.031-3.104
			C207.927,60.279,208.87,59.839,210.068,59.839z M210.104,60.466c-0.301,0-0.56,0.114-0.775,0.341
			c-0.216,0.229-0.356,0.678-0.426,1.347c-0.066,0.672-0.1,1.602-0.1,2.795c0,0.631,0.039,1.222,0.123,1.77
			c0.063,0.421,0.202,0.738,0.416,0.959c0.213,0.215,0.455,0.326,0.726,0.326c0.266,0,0.486-0.074,0.664-0.222
			c0.23-0.2,0.383-0.48,0.46-0.842c0.119-0.56,0.18-1.694,0.18-3.4c0-1.004-0.058-1.692-0.169-2.068
			c-0.114-0.374-0.279-0.647-0.497-0.817C210.553,60.528,210.353,60.466,210.104,60.466z"/>
		<path d="M218.861,60.954V66.7c0,0.555,0.06,0.903,0.178,1.046c0.188,0.219,0.537,0.317,1.045,0.301v0.317h-4.881v-0.317
			c0.374-0.006,0.637-0.048,0.794-0.129c0.156-0.079,0.264-0.19,0.323-0.331c0.061-0.142,0.088-0.438,0.088-0.887v-5.746h-1.205
			v-0.867h1.205v-0.611l-0.007-0.417c0-0.851,0.309-1.558,0.933-2.124c0.623-0.568,1.465-0.852,2.527-0.852
			c0.727,0,1.267,0.137,1.616,0.407c0.353,0.272,0.527,0.573,0.527,0.903c0,0.268-0.109,0.497-0.327,0.692
			c-0.219,0.193-0.508,0.291-0.869,0.291c-0.306,0-0.549-0.079-0.729-0.239c-0.181-0.159-0.27-0.336-0.27-0.53
			c0-0.055,0.017-0.164,0.052-0.328c0.026-0.102,0.035-0.194,0.035-0.282c0-0.125-0.035-0.218-0.104-0.275
			c-0.095-0.09-0.212-0.134-0.346-0.134c-0.171,0-0.315,0.071-0.43,0.214c-0.114,0.142-0.172,0.368-0.172,0.682l0.017,1.548v1.056
			h1.223v0.867H218.861z"/>
		<path d="M225.434,68.364V68.04h0.397c0.349,0,0.614-0.057,0.8-0.166c0.187-0.109,0.322-0.259,0.413-0.447
			c0.055-0.124,0.079-0.495,0.079-1.115v-7.9c0-0.612-0.031-0.996-0.097-1.148c-0.065-0.155-0.196-0.289-0.396-0.404
			c-0.196-0.115-0.464-0.174-0.8-0.174h-0.397v-0.326h5.374c1.435,0,2.588,0.194,3.462,0.585c1.068,0.478,1.878,1.2,2.43,2.167
			c0.552,0.969,0.827,2.065,0.827,3.288c0,0.843-0.134,1.621-0.406,2.333c-0.271,0.711-0.621,1.299-1.053,1.761
			c-0.432,0.464-0.929,0.836-1.492,1.116c-0.564,0.28-1.254,0.498-2.067,0.65c-0.36,0.071-0.929,0.105-1.7,0.105H225.434z
			 M230.01,57.041v9.368c0,0.495,0.023,0.799,0.071,0.911c0.047,0.112,0.127,0.199,0.238,0.256c0.161,0.09,0.39,0.135,0.691,0.135
			c0.986,0,1.739-0.337,2.259-1.011c0.707-0.908,1.063-2.318,1.063-4.232c0-1.539-0.242-2.771-0.727-3.693
			c-0.385-0.719-0.876-1.209-1.478-1.468C231.701,57.123,230.994,57.033,230.01,57.041z"/>
		<path d="M245.916,63.929h-4.545c0.052,1.099,0.346,1.967,0.876,2.604c0.407,0.491,0.898,0.734,1.471,0.734
			c0.354,0,0.677-0.099,0.966-0.296c0.288-0.198,0.6-0.556,0.928-1.067l0.305,0.194c-0.452,0.915-0.945,1.564-1.49,1.944
			c-0.544,0.381-1.171,0.571-1.886,0.571c-1.228,0-2.159-0.473-2.789-1.418c-0.507-0.762-0.761-1.705-0.761-2.833
			c0-1.38,0.372-2.481,1.118-3.298c0.746-0.818,1.623-1.227,2.626-1.227c0.839,0,1.567,0.344,2.183,1.03
			C245.536,61.558,245.868,62.577,245.916,63.929z M243.736,63.336c0-0.95-0.053-1.603-0.155-1.958
			c-0.104-0.354-0.265-0.621-0.483-0.804c-0.124-0.108-0.288-0.159-0.495-0.159c-0.309,0-0.56,0.148-0.752,0.451
			c-0.35,0.524-0.524,1.246-0.524,2.159v0.311H243.736z"/>
		<path d="M250.581,60.954V66.7c0,0.555,0.057,0.903,0.177,1.046c0.188,0.219,0.536,0.317,1.044,0.301v0.317h-4.878v-0.317
			c0.372-0.006,0.635-0.048,0.793-0.129c0.155-0.079,0.263-0.19,0.323-0.331c0.057-0.142,0.087-0.438,0.087-0.887v-5.746h-1.203
			v-0.867h1.203v-0.611l-0.008-0.417c0-0.851,0.311-1.558,0.932-2.124c0.625-0.568,1.467-0.852,2.529-0.852
			c0.727,0,1.266,0.137,1.617,0.407c0.351,0.272,0.527,0.573,0.527,0.903c0,0.268-0.111,0.497-0.33,0.692
			c-0.217,0.193-0.508,0.291-0.866,0.291c-0.307,0-0.55-0.079-0.729-0.239c-0.183-0.159-0.271-0.336-0.271-0.53
			c0-0.055,0.019-0.164,0.052-0.328c0.024-0.102,0.036-0.194,0.036-0.282c0-0.125-0.036-0.218-0.107-0.275
			c-0.095-0.09-0.208-0.134-0.344-0.134c-0.172,0-0.314,0.071-0.429,0.214c-0.117,0.142-0.173,0.368-0.173,0.682l0.018,1.548v1.056
			h1.221v0.867H250.581z"/>
		<path d="M260.001,63.929h-4.541c0.054,1.099,0.345,1.967,0.877,2.604c0.407,0.491,0.898,0.734,1.47,0.734
			c0.354,0,0.675-0.099,0.964-0.296c0.29-0.198,0.599-0.556,0.932-1.067l0.299,0.194c-0.446,0.915-0.945,1.564-1.486,1.944
			c-0.544,0.381-1.173,0.571-1.886,0.571c-1.229,0-2.158-0.473-2.79-1.418c-0.508-0.762-0.762-1.705-0.762-2.833
			c0-1.38,0.374-2.481,1.121-3.298c0.747-0.818,1.62-1.227,2.627-1.227c0.836,0,1.563,0.344,2.181,1.03
			C259.621,61.558,259.954,62.577,260.001,63.929z M257.823,63.336c0-0.95-0.052-1.603-0.155-1.958
			c-0.103-0.354-0.264-0.621-0.479-0.804c-0.125-0.108-0.292-0.159-0.499-0.159c-0.306,0-0.558,0.148-0.752,0.451
			c-0.347,0.524-0.521,1.246-0.521,2.159v0.311H257.823z"/>
		<path d="M264.422,60.087v1.069c0.425-0.46,0.83-0.795,1.221-1.005c0.391-0.208,0.811-0.313,1.257-0.313
			c0.538,0,0.983,0.148,1.339,0.448c0.353,0.296,0.59,0.667,0.707,1.109c0.096,0.337,0.142,0.983,0.142,1.939v3.224
			c0,0.637,0.059,1.033,0.173,1.189c0.115,0.158,0.357,0.256,0.724,0.298v0.317h-4.19v-0.317c0.313-0.042,0.538-0.172,0.674-0.391
			c0.094-0.147,0.141-0.512,0.141-1.097v-3.685c0-0.678-0.027-1.106-0.078-1.284c-0.052-0.176-0.144-0.314-0.271-0.412
			c-0.126-0.096-0.266-0.144-0.421-0.144c-0.507,0-0.979,0.361-1.415,1.088v4.437c0,0.62,0.059,1.012,0.172,1.176
			c0.114,0.168,0.33,0.27,0.642,0.312v0.317h-4.188v-0.317c0.348-0.034,0.598-0.147,0.743-0.336c0.101-0.13,0.15-0.515,0.15-1.151
			v-4.677c0-0.625-0.056-1.016-0.17-1.167c-0.117-0.153-0.357-0.254-0.724-0.301v-0.328H264.422z"/>
		<path d="M277.88,66.232l0.275,0.211c-0.389,0.733-0.875,1.278-1.457,1.634c-0.581,0.359-1.198,0.537-1.854,0.537
			c-1.104,0-1.986-0.417-2.649-1.25c-0.659-0.831-0.99-1.832-0.99-3.001c0-1.126,0.302-2.119,0.904-2.976
			c0.727-1.032,1.725-1.549,3.001-1.549c0.854,0,1.535,0.216,2.041,0.646c0.505,0.431,0.757,0.912,0.757,1.444
			c0,0.336-0.102,0.604-0.307,0.805c-0.204,0.203-0.47,0.302-0.8,0.302c-0.35,0-0.637-0.114-0.864-0.346
			c-0.227-0.229-0.366-0.64-0.42-1.229c-0.038-0.373-0.121-0.632-0.257-0.781c-0.137-0.146-0.296-0.222-0.479-0.222
			c-0.283,0-0.524,0.152-0.726,0.453c-0.307,0.453-0.462,1.15-0.462,2.09c0,0.779,0.125,1.524,0.374,2.235s0.588,1.242,1.019,1.59
			c0.323,0.254,0.71,0.38,1.15,0.38c0.288,0,0.563-0.066,0.823-0.203C277.219,66.866,277.527,66.609,277.88,66.232z"/>
		<path d="M286.188,63.929h-4.544c0.053,1.099,0.345,1.967,0.875,2.604c0.409,0.491,0.898,0.734,1.472,0.734
			c0.355,0,0.676-0.099,0.965-0.296c0.29-0.198,0.601-0.556,0.93-1.067l0.303,0.194c-0.451,0.915-0.945,1.564-1.489,1.944
			c-0.541,0.381-1.17,0.571-1.886,0.571c-1.227,0-2.157-0.473-2.789-1.418c-0.508-0.762-0.762-1.705-0.762-2.833
			c0-1.38,0.374-2.481,1.12-3.298c0.746-0.818,1.622-1.227,2.625-1.227c0.839,0,1.566,0.344,2.184,1.03
			C285.808,61.558,286.141,62.577,286.188,63.929z M284.008,63.336c0-0.95-0.052-1.603-0.153-1.958
			c-0.104-0.354-0.266-0.621-0.484-0.804c-0.125-0.108-0.289-0.159-0.494-0.159c-0.307,0-0.558,0.148-0.754,0.451
			c-0.35,0.524-0.524,1.246-0.524,2.159v0.311H284.008z"/>
	</g>
</g>
<g>
</g>
<g>
</g>
<g>
</g>
<g>
</g>
<g>
</g>
<g>
</g>
</svg>
